<svg xmlns="http://www.w3.org/2000/svg" xmlns:xlink="http://www.w3.org/1999/xlink" contentStyleType="text/css" data-diagram-type="DESCRIPTION" height="732px" preserveAspectRatio="none" style="width:2968px;height:732px;background:#FFFFFF;" version="1.1" viewBox="0 0 2968 732" width="2968px" zoomAndPan="magnify"><?plantuml 1.2026.6?><defs/><g><g class="title" data-source-line="31"><text fill="#000000" font-family="sans-serif" font-size="14" font-weight="700" lengthAdjust="spacing" textLength="402.9102" x="1279.5119" y="23.5352">AX Cross-Environment Clone &#8212; Component Boundaries</text></g><!--cluster ControllerHost--><g class="cluster" data-qualified-name="ControllerHost" data-source-line="35" id="ent0002"><polygon fill="#FAFAFA" points="105.95,149.4683,115.95,139.4683,857.95,139.4683,857.95,570.8983,847.95,580.8983,105.95,580.8983,105.95,149.4683" style="stroke:#616161;stroke-width:1;stroke-linejoin:miter;stroke-miterlimit:10;"/><line style="stroke:#616161;stroke-width:1;" x1="847.95" x2="857.95" y1="149.4683" y2="139.4683"/><line style="stroke:#616161;stroke-width:1;" x1="105.95" x2="847.95" y1="149.4683" y2="149.4683"/><line style="stroke:#616161;stroke-width:1;" x1="847.95" x2="847.95" y1="149.4683" y2="580.8983"/><text fill="#000000" font-family="sans-serif" font-size="14" font-weight="700" lengthAdjust="spacing" textLength="132.5146" x="411.6927" y="166.0034">Executing AX Host</text></g><!--cluster SourceHost--><g class="cluster" data-qualified-name="SourceHost" data-source-line="48" id="ent0012"><polygon fill="#FAFAFA" points="881.95,434.4283,891.95,424.4283,1390.95,424.4283,1390.95,697.3783,1380.95,707.3783,881.95,707.3783,881.95,434.4283" style="stroke:#616161;stroke-width:1;stroke-linejoin:miter;stroke-miterlimit:10;"/><line style="stroke:#616161;stroke-width:1;" x1="1380.95" x2="1390.95" y1="434.4283" y2="424.4283"/><line style="stroke:#616161;stroke-width:1;" x1="881.95" x2="1380.95" y1="434.4283" y2="434.4283"/><line style="stroke:#616161;stroke-width:1;" x1="1380.95" x2="1380.95" y1="434.4283" y2="707.3783"/><text fill="#000000" font-family="sans-serif" font-size="14" font-weight="700" lengthAdjust="spacing" textLength="86.2217" x="1089.3392" y="450.9634">Source Host</text></g><!--cluster SourceExecutable--><g class="cluster" data-qualified-name="SourceHost.SourceExecutable" data-source-line="49" id="ent0013"><rect fill="none" height="103.97" rx="2.5" ry="2.5" style="stroke:#181818;stroke-width:1;" width="461" x="905.95" y="472.4283"/><path d="M1224.9412,472.4283 L1224.9412,481.9166 L1214.9412,491.9166 L905.95,491.9166" fill="none" style="stroke:#181818;stroke-width:1;"/><text fill="#000000" font-family="sans-serif" font-size="14" font-weight="700" lengthAdjust="spacing" textLength="308.9912" x="908.95" y="486.9634">Trusted ax-provider-&lt;source&gt; Executable</text></g><!--cluster TargetHost--><g class="cluster" data-qualified-name="TargetHost" data-source-line="59" id="ent0019"><polygon fill="#FAFAFA" points="1858.95,258.4483,1868.95,248.4483,2570.95,248.4483,2570.95,575.3983,2560.95,585.3983,1858.95,585.3983,1858.95,258.4483" style="stroke:#616161;stroke-width:1;stroke-linejoin:miter;stroke-miterlimit:10;"/><line style="stroke:#616161;stroke-width:1;" x1="2560.95" x2="2570.95" y1="258.4483" y2="248.4483"/><line style="stroke:#616161;stroke-width:1;" x1="1858.95" x2="2560.95" y1="258.4483" y2="258.4483"/><line style="stroke:#616161;stroke-width:1;" x1="2560.95" x2="2560.95" y1="258.4483" y2="585.3983"/><text fill="#000000" font-family="sans-serif" font-size="14" font-weight="700" lengthAdjust="spacing" textLength="85.4355" x="2168.2322" y="274.9834">Target Host</text></g><!--cluster TargetExecutable--><g class="cluster" data-qualified-name="TargetHost.TargetExecutable" data-source-line="60" id="ent0020"><rect fill="none" height="103.98" rx="2.5" ry="2.5" style="stroke:#181818;stroke-width:1;" width="517" x="1882.95" y="296.4483"/><path d="M2197.2518,296.4483 L2197.2518,305.9366 L2187.2518,315.9366 L1882.95,315.9366" fill="none" style="stroke:#181818;stroke-width:1;"/><text fill="#000000" font-family="sans-serif" font-size="14" font-weight="700" lengthAdjust="spacing" textLength="304.3018" x="1885.95" y="310.9834">Trusted ax-provider-&lt;target&gt; Executable</text></g><!--entity CloneCore--><g class="entity" data-qualified-name="ControllerHost.CloneCore" data-source-line="36" id="ent0003"><rect fill="#E3F2FD" height="52.9766" rx="2.5" ry="2.5" style="stroke:#1565C0;stroke-width:0.5;" width="132.0273" x="623.94" y="179.4683"/><text fill="#000000" font-family="sans-serif" font-size="14" lengthAdjust="spacing" textLength="112.0273" x="633.94" y="203.0034">ax session clone</text><text fill="#000000" font-family="sans-serif" font-size="14" lengthAdjust="spacing" textLength="105.5469" x="633.94" y="219.4917">CLI / Controller</text></g><!--entity PluginHost--><g class="entity" data-qualified-name="ControllerHost.PluginHost" data-source-line="37" id="ent0004"><rect fill="#E3F2FD" height="52.9766" rx="2.5" ry="2.5" style="stroke:#1565C0;stroke-width:0.5;" width="193.7969" x="309.05" y="331.4483"/><text fill="#000000" font-family="sans-serif" font-size="14" lengthAdjust="spacing" textLength="134.3125" x="319.05" y="354.9834">Trusted Plugin Host</text><text fill="#000000" font-family="sans-serif" font-size="14" lengthAdjust="spacing" textLength="173.7969" x="319.05" y="371.4717">+ Exact-Tuple Admission</text></g><!--entity ValidationCore--><g class="entity" data-qualified-name="ControllerHost.ValidationCore" data-source-line="38" id="ent0005"><rect fill="#E3F2FD" height="52.9766" rx="2.5" ry="2.5" style="stroke:#1565C0;stroke-width:0.5;" width="152.8359" x="121.53" y="331.4483"/><text fill="#000000" font-family="sans-serif" font-size="14" lengthAdjust="spacing" textLength="132.8359" x="131.53" y="354.9834">Fidelity, Graph, and</text><text fill="#000000" font-family="sans-serif" font-size="14" lengthAdjust="spacing" textLength="104.3369" x="131.53" y="371.4717">Validation Core</text></g><!--entity Sinks--><g class="entity" data-qualified-name="ControllerHost.Sinks" data-source-line="39" id="ent0006"><path d="M540.38,322.4483 L581.38,322.4483 A3.75,3.75 0 0 1 583.88,324.9483 L590.88,343.4483 L839.5148,343.4483 A2.5,2.5 0 0 1 842.0148,345.9483 L842.0148,390.9248 A2.5,2.5 0 0 1 839.5148,393.4248 L540.38,393.4248 A2.5,2.5 0 0 1 537.88,390.9248 L537.88,324.9483 A2.5,2.5 0 0 1 540.38,322.4483" fill="#FFF9C4" style="stroke:#F9A825;stroke-width:0.5;"/><line style="stroke:#F9A825;stroke-width:0.5;" x1="537.88" x2="590.88" y1="343.4483" y2="343.4483"/><text fill="#000000" font-family="sans-serif" font-size="14" lengthAdjust="spacing" textLength="183.292" x="547.88" y="363.9834">Fresh Isolated Object Sinks</text><text fill="#000000" font-family="sans-serif" font-size="14" lengthAdjust="spacing" textLength="274.1348" x="547.88" y="380.4717">(raw / canonical / projection / evidence)</text></g><!--entity AXStore--><g class="entity" data-qualified-name="ControllerHost.AXStore" data-source-line="40" id="ent0007"><path d="M121.47,512.9283 C121.47,502.9283 259.948,502.9283 259.948,502.9283 C259.948,502.9283 398.4261,502.9283 398.4261,512.9283 L398.4261,554.9048 C398.4261,564.9048 259.948,564.9048 259.948,564.9048 C259.948,564.9048 121.47,564.9048 121.47,554.9048 L121.47,512.9283" fill="#E8F5E9" style="stroke:#2E7D32;stroke-width:0.5;"/><path d="M121.47,512.9283 C121.47,522.9283 259.948,522.9283 259.948,522.9283 C259.948,522.9283 398.4261,522.9283 398.4261,512.9283" fill="none" style="stroke:#2E7D32;stroke-width:0.5;"/><text fill="#000000" font-family="sans-serif" font-size="14" lengthAdjust="spacing" textLength="194.2842" x="131.47" y="540.4634">Host-Local AX Durable Store</text><text fill="#000000" font-family="sans-serif" font-size="14" lengthAdjust="spacing" textLength="256.9561" x="131.47" y="556.9517">Journal 3 + G0-G4 Bundles + Reports</text></g><!--entity SourceNativeStore--><g class="entity" data-qualified-name="SourceHost.SourceNativeStore" data-source-line="53" id="ent0016"><path d="M1072.02,639.3983 C1072.02,629.3983 1152.9531,629.3983 1152.9531,629.3983 C1152.9531,629.3983 1233.8862,629.3983 1233.8862,639.3983 L1233.8862,681.3748 C1233.8862,691.3748 1152.9531,691.3748 1152.9531,691.3748 C1152.9531,691.3748 1072.02,691.3748 1072.02,681.3748 L1072.02,639.3983" fill="#E8F5E9" style="stroke:#2E7D32;stroke-width:0.5;"/><path d="M1072.02,639.3983 C1072.02,649.3983 1152.9531,649.3983 1152.9531,649.3983 C1152.9531,649.3983 1233.8862,649.3983 1233.8862,639.3983" fill="none" style="stroke:#2E7D32;stroke-width:0.5;"/><text fill="#000000" font-family="sans-serif" font-size="14" lengthAdjust="spacing" textLength="124.332" x="1082.02" y="666.9334">Source Host-Local</text><text fill="#000000" font-family="sans-serif" font-size="14" lengthAdjust="spacing" textLength="141.8662" x="1082.02" y="683.4217">Native Provider Store</text></g><!--entity SourceProvider--><g class="entity" data-qualified-name="SourceHost.SourceExecutable.SourceProvider" data-source-line="50" id="ent0014"><rect fill="#E3F2FD" height="52.9766" rx="2.5" ry="2.5" style="stroke:#1565C0;stroke-width:0.5;" width="229.6719" x="922.12" y="507.4283"/><text fill="#000000" font-family="sans-serif" font-size="14" lengthAdjust="spacing" textLength="142.4131" x="932.12" y="530.9634">Provider Protocol 2.0</text><text fill="#000000" font-family="sans-serif" font-size="14" lengthAdjust="spacing" textLength="209.6719" x="932.12" y="547.4517">(quiesce only when AX-owned)</text></g><!--entity SourceAdapter--><g class="entity" data-qualified-name="SourceHost.SourceExecutable.SourceAdapter" data-source-line="51" id="ent0015"><rect fill="#E3F2FD" height="52.9766" rx="2.5" ry="2.5" style="stroke:#1565C0;stroke-width:0.5;" width="164.252" x="1186.83" y="507.4283"/><text fill="#000000" font-family="sans-serif" font-size="14" lengthAdjust="spacing" textLength="135.7207" x="1196.83" y="530.9634">Session Adapter 1.0</text><text fill="#000000" font-family="sans-serif" font-size="14" lengthAdjust="spacing" textLength="144.252" x="1196.83" y="547.4517">(source environment)</text></g><!--entity TargetNativeStore--><g class="entity" data-qualified-name="TargetHost.TargetNativeStore" data-source-line="64" id="ent0023"><path d="M2223.02,512.9283 C2223.02,502.9283 2303.9531,502.9283 2303.9531,502.9283 C2303.9531,502.9283 2384.8862,502.9283 2384.8862,512.9283 L2384.8862,554.9048 C2384.8862,564.9048 2303.9531,564.9048 2303.9531,564.9048 C2303.9531,564.9048 2223.02,564.9048 2223.02,554.9048 L2223.02,512.9283" fill="#E8F5E9" style="stroke:#2E7D32;stroke-width:0.5;"/><path d="M2223.02,512.9283 C2223.02,522.9283 2303.9531,522.9283 2303.9531,522.9283 C2303.9531,522.9283 2384.8862,522.9283 2384.8862,512.9283" fill="none" style="stroke:#2E7D32;stroke-width:0.5;"/><text fill="#000000" font-family="sans-serif" font-size="14" lengthAdjust="spacing" textLength="122.8828" x="2233.02" y="540.4634">Target Host-Local</text><text fill="#000000" font-family="sans-serif" font-size="14" lengthAdjust="spacing" textLength="141.8662" x="2233.02" y="556.9517">Native Provider Store</text></g><!--entity TargetTransaction--><g class="entity" data-qualified-name="TargetHost.TargetTransaction" data-source-line="65" id="ent0024"><path d="M1933.94,498.4283 L1974.94,498.4283 A3.75,3.75 0 0 1 1977.44,500.9283 L1984.44,519.4283 L2153.9556,519.4283 A2.5,2.5 0 0 1 2156.4556,521.9283 L2156.4556,566.9048 A2.5,2.5 0 0 1 2153.9556,569.4048 L1933.94,569.4048 A2.5,2.5 0 0 1 1931.44,566.9048 L1931.44,500.9283 A2.5,2.5 0 0 1 1933.94,498.4283" fill="#FFF9C4" style="stroke:#F9A825;stroke-width:0.5;"/><line style="stroke:#F9A825;stroke-width:0.5;" x1="1931.44" x2="1984.44" y1="519.4283" y2="519.4283"/><text fill="#000000" font-family="sans-serif" font-size="14" lengthAdjust="spacing" textLength="134.5039" x="1941.44" y="539.9634">Host-Local Provider</text><text fill="#000000" font-family="sans-serif" font-size="14" lengthAdjust="spacing" textLength="195.0156" x="1941.44" y="556.4517">Transaction + Rollback State</text></g><!--entity TargetCLI--><g class="entity" data-qualified-name="TargetHost.TargetCLI" data-source-line="66" id="ent0025"><rect fill="#E3F2FD" height="36.4883" rx="2.5" ry="2.5" style="stroke:#1565C0;stroke-width:0.5;" width="136.5254" x="2418.69" y="339.6883"/><text fill="#000000" font-family="sans-serif" font-size="14" lengthAdjust="spacing" textLength="116.5254" x="2428.69" y="363.2234">Native Target CLI</text></g><!--entity TargetAdapter--><g class="entity" data-qualified-name="TargetHost.TargetExecutable.TargetAdapter" data-source-line="61" id="ent0021"><rect fill="#E3F2FD" height="52.9766" rx="2.5" ry="2.5" style="stroke:#1565C0;stroke-width:0.5;" width="159.5898" x="2224.16" y="331.4483"/><text fill="#000000" font-family="sans-serif" font-size="14" lengthAdjust="spacing" textLength="135.7207" x="2234.16" y="354.9834">Session Adapter 1.0</text><text fill="#000000" font-family="sans-serif" font-size="14" lengthAdjust="spacing" textLength="139.5898" x="2234.16" y="371.4717">(target environment)</text></g><!--entity TargetProvider--><g class="entity" data-qualified-name="TargetHost.TargetExecutable.TargetProvider" data-source-line="62" id="ent0022"><rect fill="#E3F2FD" height="52.9766" rx="2.5" ry="2.5" style="stroke:#1565C0;stroke-width:0.5;" width="290.5459" x="1898.68" y="331.4483"/><text fill="#000000" font-family="sans-serif" font-size="14" lengthAdjust="spacing" textLength="142.4131" x="1908.68" y="354.9834">Provider Protocol 2.0</text><text fill="#000000" font-family="sans-serif" font-size="14" lengthAdjust="spacing" textLength="270.5459" x="1908.68" y="371.4717">materialize / status / commit / rollback</text></g><!--entity Operator--><g class="entity" data-qualified-name="Operator" data-source-line="33" id="ent0001"><ellipse cx="689.9559" cy="51.4883" fill="#F1F1F1" rx="8" ry="8" style="stroke:#181818;stroke-width:0.5;"/><path d="M689.9559,59.4883 L689.9559,86.4883 M676.9559,67.4883 L702.9559,67.4883 M689.9559,86.4883 L676.9559,101.4883 M689.9559,86.4883 L702.9559,101.4883" fill="none" style="stroke:#181818;stroke-width:0.5;"/><text fill="#000000" font-family="sans-serif" font-size="14" lengthAdjust="spacing" textLength="60.5117" x="659.7" y="116.5234">Operator</text></g><g class="entity" data-qualified-name="GMN37" data-source-line="83" id="ent0038"><path d="M2589.97,322.3183 L2589.97,393.5605 L2953.9339,393.5605 L2953.9339,332.3183 L2943.9339,322.3183 L2589.97,322.3183" fill="#FFFDE7" style="stroke:#F9A825;stroke-width:0.5;"/><path d="M2943.9339,322.3183 L2943.9339,332.3183 L2953.9339,332.3183 L2943.9339,322.3183" fill="#FFFDE7" style="stroke:#F9A825;stroke-width:1;"/><text fill="#000000" font-family="sans-serif" font-size="13" lengthAdjust="spacing" textLength="240.335" x="2595.97" y="339.8866">Plugin extensibility is protocol-based:</text><text fill="#000000" font-family="sans-serif" font-size="13" lengthAdjust="spacing" textLength="312.7935" x="2595.97" y="355.1972">each native environment supplies one companion</text><text fill="#000000" font-family="sans-serif" font-size="13" lengthAdjust="spacing" textLength="319.4014" x="2595.97" y="370.5077">Session Adapter in its trusted provider executable.</text><text fill="#000000" font-family="sans-serif" font-size="13" lengthAdjust="spacing" textLength="342.9639" x="2595.97" y="385.8183">Exact signed tuples and observed bindings fail closed.</text></g><g class="entity" data-qualified-name="GMN40" data-source-line="90" id="ent0041"><path d="M1406.91,513.5983 L1406.91,554.2194 L1842.9896,554.2194 L1842.9896,523.5983 L1832.9896,513.5983 L1406.91,513.5983" fill="#FFFDE7" style="stroke:#F9A825;stroke-width:0.5;"/><path d="M1832.9896,513.5983 L1832.9896,523.5983 L1842.9896,523.5983 L1832.9896,513.5983" fill="#FFFDE7" style="stroke:#F9A825;stroke-width:1;"/><text fill="#000000" font-family="sans-serif" font-size="13" lengthAdjust="spacing" textLength="369.2305" x="1412.91" y="531.1666">Source Adapter -&gt; canonical contracts -&gt; Target Adapter.</text><text fill="#000000" font-family="sans-serif" font-size="13" lengthAdjust="spacing" textLength="415.0796" x="1412.91" y="546.4772">No source&#215;target converter pair and no sink is a live native store.</text></g><g class="entity" data-qualified-name="GMN43" data-source-line="95" id="ent0044"><path d="M6,640.0783 L6,680.6994 A0,0 0 0 0 6,680.6994 L513.9033,680.6994 A0,0 0 0 0 513.9033,680.6994 L513.9033,650.0783 L503.9033,640.0783 L263.95,640.0783 L259.95,565.1783 L255.95,640.0783 L6,640.0783 A0,0 0 0 0 6,640.0783" fill="#FFFDE7" style="stroke:#F9A825;stroke-width:0.5;"/><path d="M503.9033,640.0783 L503.9033,650.0783 L513.9033,650.0783 L503.9033,640.0783" fill="#FFFDE7" style="stroke:#F9A825;stroke-width:0.5;"/><text fill="#000000" font-family="sans-serif" font-size="13" lengthAdjust="spacing" textLength="427.1528" x="12" y="657.6466">This store is local to the executing AX host, not shared by all hosts.</text><text fill="#000000" font-family="sans-serif" font-size="13" lengthAdjust="spacing" textLength="486.9033" x="12" y="672.9572">Source and target native stores remain local and independently authoritative.</text></g><g class="entity" data-qualified-name="GMN46" data-source-line="100" id="ent0047"><path d="M1816.52,640.0783 L1816.52,680.6994 A0,0 0 0 0 1816.52,680.6994 L2271.3823,680.6994 A0,0 0 0 0 2271.3823,680.6994 L2271.3823,650.0783 L2261.3823,640.0783 L2047.95,640.0783 L2043.95,569.8183 L2039.95,640.0783 L1816.52,640.0783 A0,0 0 0 0 1816.52,640.0783" fill="#FFFDE7" style="stroke:#F9A825;stroke-width:0.5;"/><path d="M2261.3823,640.0783 L2261.3823,650.0783 L2271.3823,650.0783 L2261.3823,640.0783" fill="#FFFDE7" style="stroke:#F9A825;stroke-width:0.5;"/><text fill="#000000" font-family="sans-serif" font-size="13" lengthAdjust="spacing" textLength="380.1548" x="1822.52" y="657.6466">Rollback is retained through live validation/finalizing intent.</text><text fill="#000000" font-family="sans-serif" font-size="13" lengthAdjust="spacing" textLength="433.8623" x="1822.52" y="672.9572">Provider commit discards it; post-commit byte rollback is forbidden.</text></g><!--link CloneCore to PluginHost--><g class="link" data-entity-1="ent0003" data-entity-2="ent0004" data-link-type="dependency" data-source-line="42" id="lnk8"><path d="M623.72,214.3783 C539.8,214.3783 405.95,214.3783 405.95,214.3783 C405.95,214.3783 405.95,284.7583 405.95,326.2683" fill="none" id="CloneCore-to-PluginHost" style="stroke:#181818;stroke-width:1;"/><polygon fill="#181818" points="405.95,331.2683,409.95,322.2683,405.95,326.2683,401.95,322.2683,405.95,331.2683" style="stroke:#181818;stroke-width:1;stroke-linejoin:miter;stroke-miterlimit:10;"/><text fill="#000000" font-family="sans-serif" font-size="13" lengthAdjust="spacing" textLength="149.519" x="284.6356" y="227.9466">bind trusted candidates</text><text fill="#000000" font-family="sans-serif" font-size="13" lengthAdjust="spacing" textLength="192.0103" x="263.39" y="243.2572">by observed executable digest</text></g><!--link CloneCore to ValidationCore--><g class="link" data-entity-1="ent0003" data-entity-2="ent0005" data-link-type="dependency" data-source-line="43" id="lnk9"><path d="M623.6,197.3783 C489.3,197.3783 197.95,197.3783 197.95,197.3783 C197.95,197.3783 197.95,280.3583 197.95,326.0583" fill="none" id="CloneCore-to-ValidationCore" style="stroke:#181818;stroke-width:1;"/><polygon fill="#181818" points="197.95,331.0583,201.95,322.0583,197.95,326.0583,193.95,322.0583,197.95,331.0583" style="stroke:#181818;stroke-width:1;stroke-linejoin:miter;stroke-miterlimit:10;"/><text fill="#000000" font-family="sans-serif" font-size="13" lengthAdjust="spacing" textLength="105.3521" x="236.7232" y="178.9466">seal and validate</text><text fill="#000000" font-family="sans-serif" font-size="13" lengthAdjust="spacing" textLength="108.9385" x="234.93" y="194.2572">canonical objects</text></g><!--link CloneCore to Sinks--><g class="link" data-entity-1="ent0003" data-entity-2="ent0006" data-link-type="dependency" data-source-line="44" id="lnk10"><path d="M689.95,232.7783 C689.95,257.5783 689.95,310.6183 689.95,337.9683" fill="none" id="CloneCore-to-Sinks" style="stroke:#181818;stroke-width:1;"/><polygon fill="#181818" points="689.95,342.9683,693.95,333.9683,689.95,337.9683,685.95,333.9683,689.95,342.9683" style="stroke:#181818;stroke-width:1;stroke-linejoin:miter;stroke-miterlimit:10;"/><text fill="#000000" font-family="sans-serif" font-size="13" lengthAdjust="spacing" textLength="108.6465" x="580.95" y="258.9466">allocate bounded</text><text fill="#000000" font-family="sans-serif" font-size="13" lengthAdjust="spacing" textLength="103.8794" x="583.3335" y="274.2572">fresh authorities</text></g><!--link ValidationCore to AXStore--><g class="link" data-entity-1="ent0005" data-entity-2="ent0007" data-link-type="dependency" data-source-line="45" id="lnk11"><path d="M197.95,384.6683 C197.95,416.2983 197.95,463.8983 197.95,497.4683" fill="none" id="ValidationCore-to-AXStore" style="stroke:#181818;stroke-width:1;"/><polygon fill="#181818" points="197.95,502.4683,201.95,493.4683,197.95,497.4683,193.95,493.4683,197.95,502.4683" style="stroke:#181818;stroke-width:1;stroke-linejoin:miter;stroke-miterlimit:10;"/><text fill="#000000" font-family="sans-serif" font-size="13" lengthAdjust="spacing" textLength="179.4419" x="17.95" y="425.1366">immutable bundles, reports,</text><text fill="#000000" font-family="sans-serif" font-size="13" lengthAdjust="spacing" textLength="122.6621" x="46.3399" y="440.4472">checkpoint, lineage</text></g><!--link SourceAdapter to SourceNativeStore--><g class="link" data-entity-1="ent0015" data-entity-2="ent0016" data-link-type="dependency" data-source-line="55" id="lnk17"><path d="M1210.36,560.7383 C1210.36,580.7483 1210.36,603.1483 1210.36,624.1483" fill="none" id="SourceAdapter-to-SourceNativeStore" style="stroke:#181818;stroke-width:1;"/><polygon fill="#181818" points="1210.36,629.1483,1214.36,620.1483,1210.36,624.1483,1206.36,620.1483,1210.36,629.1483" style="stroke:#181818;stroke-width:1;stroke-linejoin:miter;stroke-miterlimit:10;"/><text fill="#000000" font-family="sans-serif" font-size="13" lengthAdjust="spacing" textLength="177.5249" x="1032.36" y="608.5066">declared read authority only</text></g><!--link SourceProvider to SourceNativeStore--><g class="link" data-entity-1="ent0014" data-entity-2="ent0016" data-link-type="dependency" data-source-line="56" id="lnk18"><path d="M1111.9,560.7383 C1111.9,580.7483 1111.9,603.1483 1111.9,624.1483" fill="none" id="SourceProvider-to-SourceNativeStore" style="stroke:#181818;stroke-width:1;"/><polygon fill="#181818" points="1111.9,629.1483,1115.9,620.1483,1111.9,624.1483,1107.9,620.1483,1111.9,629.1483" style="stroke:#181818;stroke-width:1;stroke-linejoin:miter;stroke-miterlimit:10;"/><text fill="#000000" font-family="sans-serif" font-size="13" lengthAdjust="spacing" textLength="197.7676" x="913.9" y="591.5066">optional safe-boundary control</text></g><!--link TargetProvider to TargetTransaction--><g class="link" data-entity-1="ent0022" data-entity-2="ent0024" data-link-type="dependency" data-source-line="68" id="lnk26"><path d="M2043.95,384.6683 C2043.95,414.9483 2043.95,480.4683 2043.95,514.0783" fill="none" id="TargetProvider-to-TargetTransaction" style="stroke:#181818;stroke-width:1;"/><polygon fill="#181818" points="2043.95,519.0783,2047.95,510.0783,2043.95,514.0783,2039.95,510.0783,2043.95,519.0783" style="stroke:#181818;stroke-width:1;stroke-linejoin:miter;stroke-miterlimit:10;"/><text fill="#000000" font-family="sans-serif" font-size="13" lengthAdjust="spacing" textLength="133.4531" x="1909.95" y="437.9366">sole rollback custody</text></g><!--link TargetProvider to TargetNativeStore--><g class="link" data-entity-1="ent0022" data-entity-2="ent0023" data-link-type="dependency" data-source-line="69" id="lnk27"><path d="M2172.84,384.7383 C2172.84,434.0983 2172.84,534.3783 2172.84,534.3783 C2172.84,534.3783 2190.96,534.3783 2217.78,534.3783" fill="none" id="TargetProvider-to-TargetNativeStore" style="stroke:#181818;stroke-width:1;"/><polygon fill="#181818" points="2222.78,534.3783,2213.78,530.3783,2217.78,534.3783,2213.78,538.3783,2222.78,534.3783" style="stroke:#181818;stroke-width:1;stroke-linejoin:miter;stroke-miterlimit:10;"/><text fill="#000000" font-family="sans-serif" font-size="13" lengthAdjust="spacing" textLength="151.8042" x="2016.4423" y="466.0966">sole live-store mutation</text><text fill="#000000" font-family="sans-serif" font-size="13" lengthAdjust="spacing" textLength="159.0088" x="2012.84" y="481.4072">and publication authority</text></g><!--link TargetAdapter to TargetNativeStore--><g class="link" data-entity-1="ent0021" data-entity-2="ent0023" data-link-type="dependency" data-source-line="70" id="lnk28"><path d="M2343.85,384.6683 C2343.85,416.2983 2343.85,463.8983 2343.85,497.4683" fill="none" id="TargetAdapter-to-TargetNativeStore" style="stroke:#181818;stroke-width:1;"/><polygon fill="#181818" points="2343.85,502.4683,2347.85,493.4683,2343.85,497.4683,2339.85,493.4683,2343.85,502.4683" style="stroke:#181818;stroke-width:1;stroke-linejoin:miter;stroke-miterlimit:10;"/><text fill="#000000" font-family="sans-serif" font-size="13" lengthAdjust="spacing" textLength="145.2471" x="2197.85" y="440.1366">live read authority only</text></g><!--link TargetCLI to TargetNativeStore--><g class="link" data-entity-1="ent0025" data-entity-2="ent0023" data-link-type="dependency" data-source-line="71" id="lnk29"><path d="M2486.95,376.4883 C2486.95,421.7883 2486.95,534.3783 2486.95,534.3783 C2486.95,534.3783 2439.16,534.3783 2390.28,534.3783" fill="none" id="TargetCLI-to-TargetNativeStore" style="stroke:#181818;stroke-width:1;"/><polygon fill="#181818" points="2385.28,534.3783,2394.28,538.3783,2390.28,534.3783,2394.28,530.3783,2385.28,534.3783" style="stroke:#181818;stroke-width:1;stroke-linejoin:miter;stroke-miterlimit:10;"/><text fill="#000000" font-family="sans-serif" font-size="13" lengthAdjust="spacing" textLength="203.0869" x="2487.95" y="502.8366">resume explicit existing identity</text></g><!--link Operator to CloneCore--><g class="link" data-entity-1="ent0001" data-entity-2="ent0003" data-link-type="dependency" data-source-line="74" id="lnk30"><path d="M689.95,119.6683 C689.95,138.9983 689.95,156.9383 689.95,174.3083" fill="none" id="Operator-to-CloneCore" style="stroke:#181818;stroke-width:1;"/><polygon fill="#181818" points="689.95,179.3083,693.95,170.3083,689.95,174.3083,685.95,170.3083,689.95,179.3083" style="stroke:#181818;stroke-width:1;stroke-linejoin:miter;stroke-miterlimit:10;"/><text fill="#000000" font-family="sans-serif" font-size="13" lengthAdjust="spacing" textLength="156.7871" x="690.95" y="146.0566">clone command surfaces</text></g><!--link PluginHost to SourceAdapter--><g class="link" data-entity-1="ent0004" data-entity-2="ent0015" data-link-type="dependency" data-source-line="75" id="lnk31"><path d="M424.53,384.7683 C424.53,418.5983 424.53,472.3783 424.53,472.3783 C424.53,472.3783 1241.58,472.3783 1241.58,472.3783 C1241.58,472.3783 1241.58,485.5183 1241.58,502.0983" fill="none" id="PluginHost-to-SourceAdapter" style="stroke:#181818;stroke-width:1;"/><polygon fill="#181818" points="1241.58,507.0983,1245.58,498.0983,1241.58,502.0983,1237.58,498.0983,1241.58,507.0983" style="stroke:#181818;stroke-width:1;stroke-linejoin:miter;stroke-miterlimit:10;"/><text fill="#000000" font-family="sans-serif" font-size="13" lengthAdjust="spacing" textLength="227.3604" x="578.61" y="453.9466">discover / inspect / snapshot-proof</text><text fill="#000000" font-family="sans-serif" font-size="13" lengthAdjust="spacing" textLength="125.4551" x="629.5626" y="469.2572">capture / normalize</text></g><!--link SourceAdapter to Sinks--><g class="link" data-entity-1="ent0015" data-entity-2="ent0006" data-link-type="dependency" data-source-line="76" id="lnk32"><path d="M1296.33,507.1083 C1296.33,465.8183 1296.33,391.3783 1296.33,391.3783 C1296.33,391.3783 1026.8,391.3783 847.18,391.3783" fill="none" id="SourceAdapter-to-Sinks" style="stroke:#181818;stroke-width:1;"/><polygon fill="#181818" points="842.18,391.3783,851.18,395.3783,847.18,391.3783,851.18,387.3783,842.18,391.3783" style="stroke:#181818;stroke-width:1;stroke-linejoin:miter;stroke-miterlimit:10;"/><text fill="#000000" font-family="sans-serif" font-size="13" lengthAdjust="spacing" textLength="185.5356" x="941.12" y="387.9466">raw and canonical candidates</text></g><!--link PluginHost to TargetAdapter--><g class="link" data-entity-1="ent0004" data-entity-2="ent0021" data-link-type="dependency" data-source-line="77" id="lnk33"><path d="M476.74,384.7083 C476.74,401.2683 476.74,419.3783 476.74,419.3783 C476.74,419.3783 2303.95,419.3783 2303.95,419.3783 C2303.95,419.3783 2303.95,406.2683 2303.95,389.7083" fill="none" id="PluginHost-to-TargetAdapter" style="stroke:#181818;stroke-width:1;"/><polygon fill="#181818" points="2303.95,384.7083,2299.95,393.7083,2303.95,389.7083,2307.95,393.7083,2303.95,384.7083" style="stroke:#181818;stroke-width:1;stroke-linejoin:miter;stroke-miterlimit:10;"/><text fill="#000000" font-family="sans-serif" font-size="13" lengthAdjust="spacing" textLength="157.9741" x="1198.0561" y="400.9466">projection-plan / project</text><text fill="#000000" font-family="sans-serif" font-size="13" lengthAdjust="spacing" textLength="225.3862" x="1164.35" y="416.2572">read-back / validate / resume-plan</text></g><!--link TargetAdapter to Sinks--><g class="link" data-entity-1="ent0021" data-entity-2="ent0006" data-link-type="dependency" data-source-line="78" id="lnk34"><path d="M2264.05,384.8483 C2264.05,385.8183 2264.05,386.3783 2264.05,386.3783 C2264.05,386.3783 1242.35,386.3783 847.31,386.3783" fill="none" id="TargetAdapter-to-Sinks" style="stroke:#181818;stroke-width:1;"/><polygon fill="#181818" points="842.31,386.3783,851.31,390.3783,847.31,386.3783,851.31,382.3783,842.31,386.3783" style="stroke:#181818;stroke-width:1;stroke-linejoin:miter;stroke-miterlimit:10;"/><text fill="#000000" font-family="sans-serif" font-size="13" lengthAdjust="spacing" textLength="196.0347" x="1356.95" y="382.9466">projected objects and evidence</text></g><!--link CloneCore to TargetProvider--><g class="link" data-entity-1="ent0003" data-entity-2="ent0022" data-link-type="dependency" data-source-line="79" id="lnk35"><path d="M756.17,214.3783 C1028.02,214.3783 2043.95,214.3783 2043.95,214.3783 C2043.95,214.3783 2043.95,284.7583 2043.95,326.2683" fill="none" id="CloneCore-to-TargetProvider" style="stroke:#181818;stroke-width:1;"/><polygon fill="#181818" points="2043.95,331.2683,2047.95,322.2683,2043.95,326.2683,2039.95,322.2683,2043.95,331.2683" style="stroke:#181818;stroke-width:1;stroke-linejoin:miter;stroke-miterlimit:10;"/><text fill="#000000" font-family="sans-serif" font-size="13" lengthAdjust="spacing" textLength="166.3403" x="1259.2829" y="195.9466">Plan 2 + projected objects</text><text fill="#000000" font-family="sans-serif" font-size="13" lengthAdjust="spacing" textLength="231.8862" x="1226.51" y="211.2572">+ host-created transaction authority</text></g><!--link CloneCore to TargetCLI--><g class="link" data-entity-1="ent0003" data-entity-2="ent0025" data-link-type="dependency" data-source-line="80" id="lnk36"><path d="M756.31,197.3783 C1081.02,197.3783 2486.95,197.3783 2486.95,197.3783 C2486.95,197.3783 2486.95,291.8483 2486.95,334.2083" fill="none" id="CloneCore-to-TargetCLI" style="stroke:#181818;stroke-width:1;"/><polygon fill="#181818" points="2486.95,339.2083,2490.95,330.2083,2486.95,334.2083,2482.95,330.2083,2486.95,339.2083" style="stroke:#181818;stroke-width:1;stroke-linejoin:miter;stroke-miterlimit:10;"/><text fill="#000000" font-family="sans-serif" font-size="13" lengthAdjust="spacing" textLength="151.582" x="1512.5332" y="178.9466">optional open only after</text><text fill="#000000" font-family="sans-serif" font-size="13" lengthAdjust="spacing" textLength="207.5684" x="1484.54" y="194.2572">checkpoint + lineage publication</text></g><!--link PluginHost to GMN37--><g class="link" data-entity-1="ent0004" data-entity-2="ent0038" data-link-type="association" data-source-line="83" id="lnk39"><path d="M450.64,384.4683 C450.64,410.5183 450.64,446.3783 450.64,446.3783 C450.64,446.3783 2771.95,446.3783 2771.95,446.3783 C2771.95,446.3783 2771.95,418.3983 2771.95,393.9083" fill="none" id="PluginHost-GMN37" style="stroke:#181818;stroke-width:1;stroke-dasharray:7,7;"/></g><!--link Sinks to GMN40--><g class="link" data-entity-1="ent0006" data-entity-2="ent0041" data-link-type="association" data-source-line="90" id="lnk42"><path d="M842.52,389.3783 C1107.54,389.3783 1624.95,389.3783 1624.95,389.3783 C1624.95,389.3783 1624.95,473.2383 1624.95,513.2083" fill="none" id="Sinks-GMN40" style="stroke:#181818;stroke-width:1;stroke-dasharray:7,7;"/></g><?plantuml-src bLVRRXit47tVho3SbmRnseuJv-8M0HnPSbC4IL0RHHxqmjsb9COhSajo5Qb5W7v4WNvG_wHVqZCajKjTxBZooowNF3ESENDcR6-bQhZXS_Q6bxTJerjL3NIj3Vjkv7-PxNQKUjve9PIxTgjQC2DAnzMq5icMMYhXLerWshYPtdUM_P4n_7Qi3P-EJaUNuPisbJ1n_SdPyxF1YLyVQUNYwed_PLyJ2nLtlE1Mt6dWvUXi-6hNmEdmnUNJqmSOcEWQf-w2HwXU3PxjmezUNRmyFNi0lDBLdRwFBkXl5_pv4_fx4BWJztX-ENpnlprtkc5Eiq8xfn5zINIGMcMPamxikFZ41aPRcm_LGXgjvfJxGGqEi7___8iDEZwy8LUuaS9c6IyTR7neXE5uo38VauFXKfIjasfAe3zfwmuOjq1GpkYw5eQMukLwcXtm9RF2MhZ4IZ8xLeDtRzbnSYx0qBU1DcBx_8rfhHCL-rYtKwcytR5wp8PBE9dVj0tTiPfBRy4ZXOsqRnjg92jHIxSwP5U6DxD3nbKrLh_oMeAqv23PznZzMkTIfDt1o0WxOs-jhZcvzQ7uZ82pQwbkxLXzR_WNtAtaIYjPyXhFZT6VGqhm8XPmGPNYaRVY3tdmhcWEoE_ydQQpYF9bQtY16ruZ3OZSpxer2b-UiiViwYI_UiRU86cri7Z_HJGeTkk1Bpxv0vd7xYBBylnr4XrspWgfAkPYWE5qHPSMk4UnOhgmmYomBdpQlHkLd8eOratKpNW1sGgu2K2s25_WV1yKxMDcz-3uYE0uhsk40BLI42i5iZJnOUSjvCn8Hoobqrjs2IBU7I1oFez-5o5AXz1A7wH3U3CJvMsZfNA7NYtvLA2O8jEl4UTIz1mFxmc_9oXcqNEJBtEacN9hyX-jt_oQ3Rku9HZzOaJQekZ72CFmu7IfQtPwT09U_TRYod19gth5lio4mZrp_KM9wb62lZwz3_aw5k55nHi70qyyRd2MYLuSKhouryDztI9g4gF0rx5wZqmi1Elku1EHm8Nl2JKth0G2R6z47YjHrjmWp4RmggF0oiSYWUdCteMZ6o8A-6VvHEH5qBiLOkI5gC_-3JTJuVhiX_S7Pj_vpJlP3nZVolx-70N8tHm5p3H73oFJ78Lb92hdTm59iewxrf9ewVbSEZoGAXVeJecH3M9jCo69rxUP43QdJ4Z5DL6_zTcnkZ5SMHua53eNlGCcxf5W9jksXJ-w4nr5_qcEuIsGSVEcdaKxmAHiccQkjHCbAA2hrVq0cpJq03KMSkjNIAG8Uwn8Bvksg26ItbX7zGG-BPPzw0HyPw5qDxxpE5Is1RV5ie4NO8DOIkjRFlKjHwwWJDQ3WKVf1VmyD7XF9BgARSs4br3gfEVqjRc-2EfRsb8ly7ZCfB8DjLFGKl76phIZqj8JwXwDQmqHLcapz-JDziX7x1_KXic5lkVqtMtRdSsudYSDEszghleMFbOKrzpd_RXhR5GmFcX-TxQRfRLF4GM24VkVzt0z4MIRZN2BI-Vest3b5FpVWQ5fQ4PrKy8zMdS9NtiAxSCd9YIwg1lq5TzX-CHHvVLD4ePZbqmPIeg921WvdJcc9vkZLnpOnD89PMKXQV9Yqj85l1Zbf1xLENOANiwO2ZMQg1m8r826c6uYgngkGd5lwoJCICHpFScirJWPNOvmoe-CpCgfeY3Hv1XIq4qwD0w1wvPDkAo9pF3lA1FOGjUCbus3Dcwx7jzY9-no_Zgb7JKNJidkWhxUI2wzronqu7_-ZYgF0oW5mccuDDu_XKqmHR7ZeRvZhBn-tEFWUWn4uSzmECWD7celiFYdmSr4Z56Sweb7XmJ6xCotN0o2cCNykZtgxqfkHOTJNonAOSwHZM21TY6a0hGYzI1UHJhwC_Tula_HE-6NPCR13ALnXd-XfhCGbaKt3HvFf2ADyCgbG417pdVb55iT2GytbGLvVc2DBw7meLYvHEDXRw9D8IjS8l7vFm00?></g></svg>