<svg xmlns="http://www.w3.org/2000/svg" xmlns:xlink="http://www.w3.org/1999/xlink" contentStyleType="text/css" data-diagram-type="DESCRIPTION" height="504px" preserveAspectRatio="none" style="width:2852px;height:504px;background:#FFFFFF;" version="1.1" viewBox="0 0 2852 504" width="2852px" zoomAndPan="magnify"><?plantuml 1.2026.6?><defs/><g><g class="title" data-source-line="35"><text fill="#000000" font-family="sans-serif" font-size="14" font-weight="700" lengthAdjust="spacing" textLength="455.2256" x="1195.2672" y="23.5352">Mesh Deployment (Allowlisted Peers &amp; macOS Terminal Realm)</text></g><!--cluster UnixHost--><g class="cluster" data-qualified-name="UnixHost" data-source-line="37" id="ent0001"><polygon fill="#F5F5F5" points="25.76,101.4883,35.76,91.4883,1290.76,91.4883,1290.76,469.9983,1280.76,479.9983,25.76,479.9983,25.76,101.4883" style="stroke:#9E9E9E;stroke-width:1;stroke-linejoin:miter;stroke-miterlimit:10;"/><line style="stroke:#9E9E9E;stroke-width:1;" x1="1280.76" x2="1290.76" y1="101.4883" y2="91.4883"/><line style="stroke:#9E9E9E;stroke-width:1;" x1="25.76" x2="1280.76" y1="101.4883" y2="101.4883"/><line style="stroke:#9E9E9E;stroke-width:1;" x1="1280.76" x2="1280.76" y1="101.4883" y2="479.9983"/><text fill="#000000" font-family="sans-serif" font-size="14" font-weight="700" lengthAdjust="spacing" textLength="198.5225" x="554.9988" y="118.0234">macOS / Linux / WSL2 Host</text></g><!--cluster WinHost--><g class="cluster" data-qualified-name="WinHost" data-source-line="66" id="ent0023"><polygon fill="#F5F5F5" points="1886.76,53.4883,1896.76,43.4883,2827.76,43.4883,2827.76,465.7583,2817.76,475.7583,1886.76,475.7583,1886.76,53.4883" style="stroke:#9E9E9E;stroke-width:1;stroke-linejoin:miter;stroke-miterlimit:10;"/><line style="stroke:#9E9E9E;stroke-width:1;" x1="2817.76" x2="2827.76" y1="53.4883" y2="43.4883"/><line style="stroke:#9E9E9E;stroke-width:1;" x1="1886.76" x2="2817.76" y1="53.4883" y2="53.4883"/><line style="stroke:#9E9E9E;stroke-width:1;" x1="2817.76" x2="2817.76" y1="53.4883" y2="475.7583"/><text fill="#000000" font-family="sans-serif" font-size="14" font-weight="700" lengthAdjust="spacing" textLength="102.6826" x="2301.9187" y="70.0234">Windows Host</text></g><!--cluster Wsl2--><g class="cluster" data-qualified-name="WinHost.Wsl2" data-source-line="67" id="ent0024"><polygon fill="#F5F5F5" points="1910.76,101.4883,1920.76,91.4883,2325.76,91.4883,2325.76,200.4683,2315.76,210.4683,1910.76,210.4683,1910.76,101.4883" style="stroke:#9E9E9E;stroke-width:1;stroke-linejoin:miter;stroke-miterlimit:10;"/><line style="stroke:#9E9E9E;stroke-width:1;" x1="2315.76" x2="2325.76" y1="101.4883" y2="91.4883"/><line style="stroke:#9E9E9E;stroke-width:1;" x1="1910.76" x2="2315.76" y1="101.4883" y2="101.4883"/><line style="stroke:#9E9E9E;stroke-width:1;" x1="2315.76" x2="2315.76" y1="101.4883" y2="210.4683"/><text fill="#000000" font-family="sans-serif" font-size="14" font-weight="700" lengthAdjust="spacing" textLength="38.0283" x="2095.2458" y="118.0234">WSL2</text></g><!--entity UnixDaemon--><g class="entity" data-qualified-name="UnixHost.UnixDaemon" data-source-line="38" id="ent0002"><rect fill="#E3F2FD" height="62.9766" rx="2.5" ry="2.5" style="stroke:#1565C0;stroke-width:0.5;" width="215.834" x="204.84" y="131.4883"/><rect fill="#E3F2FD" height="10" style="stroke:#1565C0;stroke-width:0.5;" width="15" x="400.674" y="136.4883"/><rect fill="#E3F2FD" height="2" style="stroke:#1565C0;stroke-width:0.5;" width="4" x="398.674" y="138.4883"/><rect fill="#E3F2FD" height="2" style="stroke:#1565C0;stroke-width:0.5;" width="4" x="398.674" y="142.4883"/><text fill="#000000" font-family="sans-serif" font-size="14" lengthAdjust="spacing" textLength="175.834" x="219.84" y="165.0234">Background Control Plane</text><text fill="#000000" font-family="sans-serif" font-size="14" lengthAdjust="spacing" textLength="126.7793" x="219.84" y="181.5117">(launchd/systemd)</text></g><!--entity UnixCli--><g class="entity" data-qualified-name="UnixHost.UnixCli" data-source-line="39" id="ent0003"><rect fill="#E3F2FD" height="46.4883" rx="2.5" ry="2.5" style="stroke:#1565C0;stroke-width:0.5;" width="81.9316" x="539.79" y="139.7383"/><rect fill="#E3F2FD" height="10" style="stroke:#1565C0;stroke-width:0.5;" width="15" x="601.7216" y="144.7383"/><rect fill="#E3F2FD" height="2" style="stroke:#1565C0;stroke-width:0.5;" width="4" x="599.7216" y="146.7383"/><rect fill="#E3F2FD" height="2" style="stroke:#1565C0;stroke-width:0.5;" width="4" x="599.7216" y="150.7383"/><text fill="#000000" font-family="sans-serif" font-size="14" lengthAdjust="spacing" textLength="41.9316" x="554.79" y="173.2734">ax CLI</text></g><!--entity AquaBroker--><g class="entity" data-qualified-name="UnixHost.AquaBroker" data-source-line="40" id="ent0004"><rect fill="#E3F2FD" height="62.9766" rx="2.5" ry="2.5" style="stroke:#1565C0;stroke-width:0.5;" width="174.8936" x="41.31" y="266.2583"/><rect fill="#E3F2FD" height="10" style="stroke:#1565C0;stroke-width:0.5;" width="15" x="196.2036" y="271.2583"/><rect fill="#E3F2FD" height="2" style="stroke:#1565C0;stroke-width:0.5;" width="4" x="194.2036" y="273.2583"/><rect fill="#E3F2FD" height="2" style="stroke:#1565C0;stroke-width:0.5;" width="4" x="194.2036" y="277.2583"/><text fill="#000000" font-family="sans-serif" font-size="14" lengthAdjust="spacing" textLength="134.2305" x="56.31" y="299.7934">macOS Aqua Broker</text><text fill="#000000" font-family="sans-serif" font-size="14" lengthAdjust="spacing" textLength="134.8936" x="56.31" y="316.2817">(minimal GUI realm)</text></g><!--entity UnixSqlite--><g class="entity" data-qualified-name="UnixHost.UnixSqlite" data-source-line="41" id="ent0005"><path d="M251.07,276.7583 C251.07,266.7583 312.7565,266.7583 312.7565,266.7583 C312.7565,266.7583 374.443,266.7583 374.443,276.7583 L374.443,318.7348 C374.443,328.7348 312.7565,328.7348 312.7565,328.7348 C312.7565,328.7348 251.07,328.7348 251.07,318.7348 L251.07,276.7583" fill="#E3F2FD" style="stroke:#1565C0;stroke-width:0.5;"/><path d="M251.07,276.7583 C251.07,286.7583 312.7565,286.7583 312.7565,286.7583 C312.7565,286.7583 374.443,286.7583 374.443,276.7583" fill="none" style="stroke:#1565C0;stroke-width:0.5;"/><text fill="#000000" font-family="sans-serif" font-size="14" lengthAdjust="spacing" textLength="82.4072" x="261.07" y="304.2934">Local SQLite</text><text fill="#000000" font-family="sans-serif" font-size="14" lengthAdjust="spacing" textLength="103.373" x="261.07" y="320.7817">(Derived Index)</text></g><!--entity UnixStore--><g class="entity" data-qualified-name="UnixHost.UnixStore" data-source-line="42" id="ent0006"><path d="M411.75,270.4983 L452.75,270.4983 A3.75,3.75 0 0 1 455.25,272.9983 L462.25,291.4983 L611.7568,291.4983 A2.5,2.5 0 0 1 614.2568,293.9983 L614.2568,322.4866 A2.5,2.5 0 0 1 611.7568,324.9866 L411.75,324.9866 A2.5,2.5 0 0 1 409.25,322.4866 L409.25,272.9983 A2.5,2.5 0 0 1 411.75,270.4983" fill="#FFF9C4" style="stroke:#FBC02D;stroke-width:0.5;"/><line style="stroke:#FBC02D;stroke-width:0.5;" x1="409.25" x2="462.25" y1="291.4983" y2="291.4983"/><text fill="#000000" font-family="sans-serif" font-size="14" lengthAdjust="spacing" textLength="175.0068" x="419.25" y="312.0334">Immutable Records/Blobs</text></g><!--entity UnixNative--><g class="entity" data-qualified-name="UnixHost.UnixNative" data-source-line="43" id="ent0007"><path d="M1030.76,405.2683 L1071.76,405.2683 A3.75,3.75 0 0 1 1074.26,407.7683 L1081.26,426.2683 L1204.7629,426.2683 A2.5,2.5 0 0 1 1207.2629,428.7683 L1207.2629,457.2566 A2.5,2.5 0 0 1 1204.7629,459.7566 L1030.76,459.7566 A2.5,2.5 0 0 1 1028.26,457.2566 L1028.26,407.7683 A2.5,2.5 0 0 1 1030.76,405.2683" fill="#FFF9C4" style="stroke:#FBC02D;stroke-width:0.5;"/><line style="stroke:#FBC02D;stroke-width:0.5;" x1="1028.26" x2="1081.26" y1="426.2683" y2="426.2683"/><text fill="#000000" font-family="sans-serif" font-size="14" lengthAdjust="spacing" textLength="149.0029" x="1038.26" y="446.8034">Native Provider Stores</text></g><!--entity UnixTmux--><g class="entity" data-qualified-name="UnixHost.UnixTmux" data-source-line="45" id="ent0008"><rect fill="#E3F2FD" height="62.9766" rx="2.5" ry="2.5" style="stroke:#1565C0;stroke-width:0.5;" width="175.4063" x="303.05" y="401.0183"/><rect fill="#E3F2FD" height="10" style="stroke:#1565C0;stroke-width:0.5;" width="15" x="458.4563" y="406.0183"/><rect fill="#E3F2FD" height="2" style="stroke:#1565C0;stroke-width:0.5;" width="4" x="456.4563" y="408.0183"/><rect fill="#E3F2FD" height="2" style="stroke:#1565C0;stroke-width:0.5;" width="4" x="456.4563" y="412.0183"/><text fill="#000000" font-family="sans-serif" font-size="14" lengthAdjust="spacing" textLength="120.832" x="318.05" y="434.5534">Terminal Backend</text><text fill="#000000" font-family="sans-serif" font-size="14" lengthAdjust="spacing" textLength="135.4063" x="318.05" y="451.0417">(dedicated tmux -S)</text></g><!--entity UnixTb--><g class="entity" data-qualified-name="UnixHost.UnixTb" data-source-line="46" id="ent0009"><rect fill="#E3F2FD" height="62.9766" rx="2.5" ry="2.5" style="stroke:#1565C0;stroke-width:0.5;" width="314.7432" x="960.38" y="266.2583"/><rect fill="#E3F2FD" height="10" style="stroke:#1565C0;stroke-width:0.5;" width="15" x="1255.1232" y="271.2583"/><rect fill="#E3F2FD" height="2" style="stroke:#1565C0;stroke-width:0.5;" width="4" x="1253.1232" y="273.2583"/><rect fill="#E3F2FD" height="2" style="stroke:#1565C0;stroke-width:0.5;" width="4" x="1253.1232" y="277.2583"/><text fill="#000000" font-family="sans-serif" font-size="14" lengthAdjust="spacing" textLength="136.0762" x="975.38" y="299.7934">Opaque Task-Board</text><text fill="#000000" font-family="sans-serif" font-size="14" lengthAdjust="spacing" textLength="274.7432" x="975.38" y="316.2817">(Managed-Session Ownership Boundary)</text></g><g class="entity" data-qualified-name="UnixHost.GMN20" data-source-line="59" id="ent0021"><path d="M686.52,262.1283 L686.52,333.3705 L924.9844,333.3705 L924.9844,272.1283 L914.9844,262.1283 L686.52,262.1283" fill="#FFF9C4" style="stroke:#FBC02D;stroke-width:0.5;"/><path d="M914.9844,262.1283 L914.9844,272.1283 L924.9844,272.1283 L914.9844,262.1283" fill="#FFF9C4" style="stroke:#FBC02D;stroke-width:1;"/><text fill="#000000" font-family="sans-serif" font-size="13" lengthAdjust="spacing" textLength="73.7915" x="692.52" y="279.6966">macOS only</text><text fill="#000000" font-family="sans-serif" font-size="13" lengthAdjust="spacing" textLength="207.0669" x="692.52" y="295.0072">Evidence binds tmux generation,</text><text fill="#000000" font-family="sans-serif" font-size="13" lengthAdjust="spacing" textLength="217.4644" x="692.52" y="310.3177">provider build, and macOS version</text><text fill="#000000" font-family="sans-serif" font-size="13" lengthAdjust="spacing" textLength="206.7876" x="692.52" y="325.6283">Background cannot create server</text></g><!--entity WinDaemon--><g class="entity" data-qualified-name="WinHost.WinDaemon" data-source-line="72" id="ent0027"><rect fill="#E3F2FD" height="62.9766" rx="2.5" ry="2.5" style="stroke:#1565C0;stroke-width:0.5;" width="209.4697" x="2345.02" y="131.4883"/><rect fill="#E3F2FD" height="10" style="stroke:#1565C0;stroke-width:0.5;" width="15" x="2534.4897" y="136.4883"/><rect fill="#E3F2FD" height="2" style="stroke:#1565C0;stroke-width:0.5;" width="4" x="2532.4897" y="138.4883"/><rect fill="#E3F2FD" height="2" style="stroke:#1565C0;stroke-width:0.5;" width="4" x="2532.4897" y="142.4883"/><text fill="#000000" font-family="sans-serif" font-size="14" lengthAdjust="spacing" textLength="77.123" x="2360.02" y="165.0234">ax Daemon</text><text fill="#000000" font-family="sans-serif" font-size="14" lengthAdjust="spacing" textLength="169.4697" x="2360.02" y="181.5117">(Scheduled Task/Service)</text></g><!--entity WinCli--><g class="entity" data-qualified-name="WinHost.WinCli" data-source-line="73" id="ent0028"><rect fill="#E3F2FD" height="46.4883" rx="2.5" ry="2.5" style="stroke:#1565C0;stroke-width:0.5;" width="81.9316" x="2589.79" y="139.7383"/><rect fill="#E3F2FD" height="10" style="stroke:#1565C0;stroke-width:0.5;" width="15" x="2651.7216" y="144.7383"/><rect fill="#E3F2FD" height="2" style="stroke:#1565C0;stroke-width:0.5;" width="4" x="2649.7216" y="146.7383"/><rect fill="#E3F2FD" height="2" style="stroke:#1565C0;stroke-width:0.5;" width="4" x="2649.7216" y="150.7383"/><text fill="#000000" font-family="sans-serif" font-size="14" lengthAdjust="spacing" textLength="41.9316" x="2604.79" y="173.2734">ax CLI</text></g><!--entity WinSqlite--><g class="entity" data-qualified-name="WinHost.WinSqlite" data-source-line="74" id="ent0029"><path d="M1903.07,276.7583 C1903.07,266.7583 1964.7565,266.7583 1964.7565,266.7583 C1964.7565,266.7583 2026.443,266.7583 2026.443,276.7583 L2026.443,318.7348 C2026.443,328.7348 1964.7565,328.7348 1964.7565,328.7348 C1964.7565,328.7348 1903.07,328.7348 1903.07,318.7348 L1903.07,276.7583" fill="#E3F2FD" style="stroke:#1565C0;stroke-width:0.5;"/><path d="M1903.07,276.7583 C1903.07,286.7583 1964.7565,286.7583 1964.7565,286.7583 C1964.7565,286.7583 2026.443,286.7583 2026.443,276.7583" fill="none" style="stroke:#1565C0;stroke-width:0.5;"/><text fill="#000000" font-family="sans-serif" font-size="14" lengthAdjust="spacing" textLength="82.4072" x="1913.07" y="304.2934">Local SQLite</text><text fill="#000000" font-family="sans-serif" font-size="14" lengthAdjust="spacing" textLength="103.373" x="1913.07" y="320.7817">(Derived Index)</text></g><!--entity WinStore--><g class="entity" data-qualified-name="WinHost.WinStore" data-source-line="75" id="ent0030"><path d="M2063.75,270.4983 L2104.75,270.4983 A3.75,3.75 0 0 1 2107.25,272.9983 L2114.25,291.4983 L2263.7568,291.4983 A2.5,2.5 0 0 1 2266.2568,293.9983 L2266.2568,322.4866 A2.5,2.5 0 0 1 2263.7568,324.9866 L2063.75,324.9866 A2.5,2.5 0 0 1 2061.25,322.4866 L2061.25,272.9983 A2.5,2.5 0 0 1 2063.75,270.4983" fill="#FFF9C4" style="stroke:#FBC02D;stroke-width:0.5;"/><line style="stroke:#FBC02D;stroke-width:0.5;" x1="2061.25" x2="2114.25" y1="291.4983" y2="291.4983"/><text fill="#000000" font-family="sans-serif" font-size="14" lengthAdjust="spacing" textLength="175.0068" x="2071.25" y="312.0334">Immutable Records/Blobs</text></g><!--entity WinNative--><g class="entity" data-qualified-name="WinHost.WinNative" data-source-line="76" id="ent0031"><path d="M2567.76,405.2683 L2608.76,405.2683 A3.75,3.75 0 0 1 2611.26,407.7683 L2618.26,426.2683 L2741.7629,426.2683 A2.5,2.5 0 0 1 2744.2629,428.7683 L2744.2629,457.2566 A2.5,2.5 0 0 1 2741.7629,459.7566 L2567.76,459.7566 A2.5,2.5 0 0 1 2565.26,457.2566 L2565.26,407.7683 A2.5,2.5 0 0 1 2567.76,405.2683" fill="#FFF9C4" style="stroke:#FBC02D;stroke-width:0.5;"/><line style="stroke:#FBC02D;stroke-width:0.5;" x1="2565.26" x2="2618.26" y1="426.2683" y2="426.2683"/><text fill="#000000" font-family="sans-serif" font-size="14" lengthAdjust="spacing" textLength="149.0029" x="2575.26" y="446.8034">Native Provider Stores</text></g><!--entity WinPty--><g class="entity" data-qualified-name="WinHost.WinPty" data-source-line="78" id="ent0032"><rect fill="#E3F2FD" height="62.9766" rx="2.5" ry="2.5" style="stroke:#1565C0;stroke-width:0.5;" width="160.832" x="2301.34" y="266.2583"/><rect fill="#E3F2FD" height="10" style="stroke:#1565C0;stroke-width:0.5;" width="15" x="2442.172" y="271.2583"/><rect fill="#E3F2FD" height="2" style="stroke:#1565C0;stroke-width:0.5;" width="4" x="2440.172" y="273.2583"/><rect fill="#E3F2FD" height="2" style="stroke:#1565C0;stroke-width:0.5;" width="4" x="2440.172" y="277.2583"/><text fill="#000000" font-family="sans-serif" font-size="14" lengthAdjust="spacing" textLength="120.832" x="2316.34" y="299.7934">Terminal Backend</text><text fill="#000000" font-family="sans-serif" font-size="14" lengthAdjust="spacing" textLength="61.3936" x="2316.34" y="316.2817">(ConPTY)</text></g><!--entity WinTb--><g class="entity" data-qualified-name="WinHost.WinTb" data-source-line="79" id="ent0033"><rect fill="#E3F2FD" height="62.9766" rx="2.5" ry="2.5" style="stroke:#1565C0;stroke-width:0.5;" width="314.7432" x="2497.38" y="266.2583"/><rect fill="#E3F2FD" height="10" style="stroke:#1565C0;stroke-width:0.5;" width="15" x="2792.1232" y="271.2583"/><rect fill="#E3F2FD" height="2" style="stroke:#1565C0;stroke-width:0.5;" width="4" x="2790.1232" y="273.2583"/><rect fill="#E3F2FD" height="2" style="stroke:#1565C0;stroke-width:0.5;" width="4" x="2790.1232" y="277.2583"/><text fill="#000000" font-family="sans-serif" font-size="14" lengthAdjust="spacing" textLength="136.0762" x="2512.38" y="299.7934">Opaque Task-Board</text><text fill="#000000" font-family="sans-serif" font-size="14" lengthAdjust="spacing" textLength="274.7432" x="2512.38" y="316.2817">(Managed-Session Ownership Boundary)</text></g><!--entity WslDaemon--><g class="entity" data-qualified-name="WinHost.Wsl2.WslDaemon" data-source-line="68" id="ent0025"><rect fill="#E3F2FD" height="46.4883" rx="2.5" ry="2.5" style="stroke:#1565C0;stroke-width:0.5;" width="187.1641" x="1927.17" y="139.7383"/><rect fill="#E3F2FD" height="10" style="stroke:#1565C0;stroke-width:0.5;" width="15" x="2094.3341" y="144.7383"/><rect fill="#E3F2FD" height="2" style="stroke:#1565C0;stroke-width:0.5;" width="4" x="2092.3341" y="146.7383"/><rect fill="#E3F2FD" height="2" style="stroke:#1565C0;stroke-width:0.5;" width="4" x="2092.3341" y="150.7383"/><text fill="#000000" font-family="sans-serif" font-size="14" lengthAdjust="spacing" textLength="147.1641" x="1942.17" y="173.2734">ax Daemon (systemd)</text></g><!--entity WslTmux--><g class="entity" data-qualified-name="WinHost.Wsl2.WslTmux" data-source-line="69" id="ent0026"><rect fill="#E3F2FD" height="62.9766" rx="2.5" ry="2.5" style="stroke:#1565C0;stroke-width:0.5;" width="160.832" x="2149.34" y="131.4883"/><rect fill="#E3F2FD" height="10" style="stroke:#1565C0;stroke-width:0.5;" width="15" x="2290.172" y="136.4883"/><rect fill="#E3F2FD" height="2" style="stroke:#1565C0;stroke-width:0.5;" width="4" x="2288.172" y="138.4883"/><rect fill="#E3F2FD" height="2" style="stroke:#1565C0;stroke-width:0.5;" width="4" x="2288.172" y="142.4883"/><text fill="#000000" font-family="sans-serif" font-size="14" lengthAdjust="spacing" textLength="120.832" x="2164.34" y="165.0234">Terminal Backend</text><text fill="#000000" font-family="sans-serif" font-size="14" lengthAdjust="spacing" textLength="44.6865" x="2164.34" y="181.5117">(tmux)</text></g><!--entity Mesh--><g class="entity" data-qualified-name="Mesh" data-source-line="90" id="ent0041"><path d="M1320.0854,284.2821 C1322.7205,275.826 1329.5699,274.9484 1334.6275,282.0122 C1339.3597,275.942 1343.0435,276.5574 1346.5617,283.1558 C1350.276,274.8021 1357.7001,275.8091 1361.8241,282.7469 C1364.2034,276.1407 1369.8318,274.6888 1374.4782,280.422 C1378.1531,274.7503 1384.4429,273.7683 1388.1617,280.3731 C1392.5606,274.1531 1397.1657,272.0837 1402.4332,279.4614 C1407.6474,273.0098 1411.9664,274.1027 1415.3957,281.1725 C1418.544,274.6047 1424.8544,272.8139 1429.2536,279.9033 C1432.8761,274.215 1438.8303,275.4949 1441.4387,281.0066 C1446.2727,274.3282 1450.5438,273.6608 1455.3954,280.9891 C1460.5619,274.8188 1466.2952,274.2654 1469.796,282.6385 C1473.7773,275.9507 1480.6581,275.1318 1484.1435,283.1233 C1487.9844,278.3431 1492.3206,279.1979 1495.4068,284.0096 C1498.9637,276.2617 1506.0546,276.308 1510.8944,282.5937 C1521.2544,285.7181 1521.7788,290.925 1515.7982,298.9488 C1522.5335,305.9956 1518.6093,313.1579 1509.8899,314.2289 C1506.9587,320.3054 1502.2514,321.4737 1497.3444,316.465 C1492.3744,322.8913 1488.0671,321.9657 1483.6681,315.8428 C1479.7064,323.7629 1473.3399,324.2021 1468.6731,316.5205 C1465.8588,321.8356 1461.5689,324.0616 1456.9622,318.4396 C1454.2843,326.1326 1447.5996,326.8906 1443.3813,319.8605 C1440.0099,327.748 1434.6902,327.5253 1429.7228,321.4183 C1425.8606,328.9335 1420.0172,328.414 1416.071,321.4977 C1411.2389,327.0451 1404.9037,327.5171 1401.4673,319.9442 C1398.0831,325.1144 1392.2977,326.0663 1388.9572,319.8961 C1383.0562,327.8062 1378.453,325.8234 1373.3854,319.0145 C1368.5702,323.0001 1364.4924,323.6328 1361.7088,316.8181 C1356.8917,324.2198 1351.884,323.9872 1346.4965,317.4403 C1341.4999,322.2965 1335.2852,320.9469 1332.739,314.4666 C1329.2522,320.8954 1323.5136,320.5587 1319.3454,315.2437 C1309.7052,311.2725 1308.1432,305.2687 1316.2126,298.0674 C1311.6061,292.8609 1311.5139,285.7863 1320.0854,284.2821" fill="#E0F7FA" style="stroke:#00BCD4;stroke-width:0.5;"/><text fill="#000000" font-family="sans-serif" font-size="14" lengthAdjust="spacing" textLength="176.4219" x="1325.55" y="303.0334">Tailscale / OpenSSH Mesh</text></g><g class="entity" data-qualified-name="GMN45" data-source-line="97" id="ent0046"><path d="M1551.55,254.4683 L1551.55,293.9983 L1517.28,297.9983 L1551.55,301.9983 L1551.55,341.021 A0,0 0 0 0 1551.55,341.021 L1867.9602,341.021 A0,0 0 0 0 1867.9602,341.021 L1867.9602,264.4683 L1857.9602,254.4683 L1551.55,254.4683 A0,0 0 0 0 1551.55,254.4683" fill="#FFF9C4" style="stroke:#FBC02D;stroke-width:0.5;"/><path d="M1857.9602,254.4683 L1857.9602,264.4683 L1867.9602,264.4683 L1857.9602,254.4683" fill="#FFF9C4" style="stroke:#FBC02D;stroke-width:0.5;"/><ellipse cx="1563.05" cy="267.2788" fill="#000000" rx="2.5" ry="2.5"/><text fill="#000000" font-family="sans-serif" font-size="13" lengthAdjust="spacing" textLength="164.6265" x="1569.55" y="272.0366">Explicit peer allowlist only</text><ellipse cx="1563.05" cy="282.5894" fill="#000000" rx="2.5" ry="2.5"/><text fill="#000000" font-family="sans-serif" font-size="13" lengthAdjust="spacing" textLength="146.4404" x="1569.55" y="287.3472">No public TCP listeners</text><ellipse cx="1563.05" cy="297.8999" fill="#000000" rx="2.5" ry="2.5"/><text fill="#000000" font-family="sans-serif" font-size="13" lengthAdjust="spacing" textLength="245.6289" x="1569.55" y="302.6577">No replicated credentials/sockets/PIDs</text><ellipse cx="1563.05" cy="313.2105" fill="#000000" rx="2.5" ry="2.5"/><text fill="#000000" font-family="sans-serif" font-size="13" lengthAdjust="spacing" textLength="283.4102" x="1569.55" y="317.9683">tmux socket + auth state stay machine-local</text><ellipse cx="1563.05" cy="328.521" fill="#000000" rx="2.5" ry="2.5"/><text fill="#000000" font-family="sans-serif" font-size="13" lengthAdjust="spacing" textLength="190.1948" x="1569.55" y="333.2788">No default payload encryption</text></g><!--link UnixCli to UnixSqlite--><g class="link" data-entity-1="ent0003" data-entity-2="ent0005" data-link-type="dependency" data-source-line="48" id="lnk10"><path d="M577.03,186.3883 C577.03,209.3683 577.03,240.9983 577.03,240.9983 C577.03,240.9983 333.32,240.9983 333.32,240.9983 C333.32,240.9983 333.32,248.2583 333.32,261.3883" fill="none" id="UnixCli-to-UnixSqlite" style="stroke:#181818;stroke-width:1;"/><polygon fill="#181818" points="333.32,266.3883,337.32,257.3883,333.32,261.3883,329.32,257.3883,333.32,266.3883" style="stroke:#181818;stroke-width:1;stroke-linejoin:miter;stroke-miterlimit:10;"/></g><!--link UnixCli to UnixStore--><g class="link" data-entity-1="ent0003" data-entity-2="ent0006" data-link-type="dependency" data-source-line="49" id="lnk11"><path d="M595.64,186.4583 C595.64,209.8283 595.64,261.6983 595.64,286.3583" fill="none" id="UnixCli-to-UnixStore" style="stroke:#181818;stroke-width:1;"/><polygon fill="#181818" points="595.64,291.3583,599.64,282.3583,595.64,286.3583,591.64,282.3583,595.64,291.3583" style="stroke:#181818;stroke-width:1;stroke-linejoin:miter;stroke-miterlimit:10;"/></g><!--link UnixDaemon to UnixSqlite--><g class="link" data-entity-1="ent0002" data-entity-2="ent0005" data-link-type="dependency" data-source-line="50" id="lnk12"><path d="M292.19,194.9183 C292.19,216.5583 292.19,240.0083 292.19,261.4983" fill="none" id="UnixDaemon-to-UnixSqlite" style="stroke:#181818;stroke-width:1;"/><polygon fill="#181818" points="292.19,266.4983,296.19,257.4983,292.19,261.4983,288.19,257.4983,292.19,266.4983" style="stroke:#181818;stroke-width:1;stroke-linejoin:miter;stroke-miterlimit:10;"/></g><!--link UnixDaemon to UnixStore--><g class="link" data-entity-1="ent0002" data-entity-2="ent0006" data-link-type="dependency" data-source-line="51" id="lnk13"><path d="M414.96,194.9183 C414.96,217.7983 414.96,243.3083 414.96,265.1383" fill="none" id="UnixDaemon-to-UnixStore" style="stroke:#181818;stroke-width:1;"/><polygon fill="#181818" points="414.96,270.1383,418.96,261.1383,414.96,265.1383,410.96,261.1383,414.96,270.1383" style="stroke:#181818;stroke-width:1;stroke-linejoin:miter;stroke-miterlimit:10;"/></g><!--link UnixCli to UnixTmux--><g class="link" data-entity-1="ent0003" data-entity-2="ent0008" data-link-type="dependency" data-source-line="52" id="lnk14"><path d="M617.99,186.4683 C617.99,252.1683 617.99,432.9983 617.99,432.9983 C617.99,432.9983 547.81,432.9983 483.94,432.9983" fill="none" id="UnixCli-to-UnixTmux" style="stroke:#181818;stroke-width:1;"/><polygon fill="#181818" points="478.94,432.9983,487.94,436.9983,483.94,432.9983,487.94,428.9983,478.94,432.9983" style="stroke:#181818;stroke-width:1;stroke-linejoin:miter;stroke-miterlimit:10;"/><text fill="#000000" font-family="sans-serif" font-size="13" lengthAdjust="spacing" textLength="86.2266" x="530.99" y="375.8266">pane wrapper</text></g><!--link UnixCli to AquaBroker--><g class="link" data-entity-1="ent0003" data-entity-2="ent0004" data-link-type="dependency" data-source-line="53" id="lnk15"><path d="M558.41,186.5783 C558.41,202.6383 558.41,220.9983 558.41,220.9983 C558.41,220.9983 210.52,220.9983 210.52,220.9983 C210.52,220.9983 210.52,239.9483 210.52,261.0883" fill="none" id="UnixCli-to-AquaBroker" style="stroke:#181818;stroke-width:1;"/><polygon fill="#181818" points="210.52,266.0883,214.52,257.0883,210.52,261.0883,206.52,257.0883,210.52,266.0883" style="stroke:#181818;stroke-width:1;stroke-linejoin:miter;stroke-miterlimit:10;"/><text fill="#000000" font-family="sans-serif" font-size="13" lengthAdjust="spacing" textLength="131.3711" x="245.5043" y="234.5666">functional sentinel +</text><text fill="#000000" font-family="sans-serif" font-size="13" lengthAdjust="spacing" textLength="134.1196" x="244.13" y="249.8772">provider-auth smoke</text></g><!--link UnixDaemon to AquaBroker--><g class="link" data-entity-1="ent0002" data-entity-2="ent0004" data-link-type="dependency" data-source-line="54" id="lnk16"><path d="M207.68,194.9183 C207.68,216.3983 207.68,239.5983 207.68,261.0383" fill="none" id="UnixDaemon-to-AquaBroker" style="stroke:#181818;stroke-width:1;"/><polygon fill="#181818" points="207.68,266.0383,211.68,257.0383,207.68,261.0383,203.68,257.0383,207.68,266.0383" style="stroke:#181818;stroke-width:1;stroke-linejoin:miter;stroke-miterlimit:10;"/><text fill="#000000" font-family="sans-serif" font-size="13" lengthAdjust="spacing" textLength="131.498" x="75.68" y="227.0466">contact existing only</text></g><!--link AquaBroker to UnixTmux--><g class="link" data-entity-1="ent0004" data-entity-2="ent0008" data-link-type="dependency" data-source-line="55" id="lnk17"><path d="M128.76,329.4583 C128.76,369.4283 128.76,432.9983 128.76,432.9983 C128.76,432.9983 221.67,432.9983 297.79,432.9983" fill="none" id="AquaBroker-to-UnixTmux" style="stroke:#181818;stroke-width:1;"/><polygon fill="#181818" points="302.79,432.9983,293.79,428.9983,297.79,432.9983,293.79,436.9983,302.79,432.9983" style="stroke:#181818;stroke-width:1;stroke-linejoin:miter;stroke-miterlimit:10;"/><text fill="#000000" font-family="sans-serif" font-size="13" lengthAdjust="spacing" textLength="156.5396" x="7" y="429.5666">create / attest on macOS</text></g><!--link UnixCli to UnixTb--><g class="link" data-entity-1="ent0003" data-entity-2="ent0009" data-link-type="dependency" data-source-line="56" id="lnk18"><path d="M622,174.9983 C747.75,174.9983 1117.76,174.9983 1117.76,174.9983 C1117.76,174.9983 1117.76,224.4483 1117.76,260.8183" fill="none" id="UnixCli-to-UnixTb" style="stroke:#181818;stroke-width:1;"/><polygon fill="#181818" points="1117.76,265.8183,1121.76,256.8183,1117.76,260.8183,1113.76,256.8183,1117.76,265.8183" style="stroke:#181818;stroke-width:1;stroke-linejoin:miter;stroke-miterlimit:10;"/><text fill="#000000" font-family="sans-serif" font-size="13" lengthAdjust="spacing" textLength="121.7988" x="787.5395" y="188.5666">Official Bridge Only</text><text fill="#000000" font-family="sans-serif" font-size="13" lengthAdjust="spacing" textLength="132.2979" x="782.29" y="203.8772">(ax does not inspect)</text></g><!--link UnixTb to UnixNative--><g class="link" data-entity-1="ent0009" data-entity-2="ent0007" data-link-type="dependency" data-source-line="57" id="lnk19"><path d="M1117.76,329.6783 C1117.76,352.5683 1117.76,399.0783 1117.76,420.9083" fill="none" id="UnixTb-to-UnixNative" style="stroke:#181818;stroke-width:1;"/><polygon fill="#181818" points="1117.76,425.9083,1121.76,416.9083,1117.76,420.9083,1113.76,416.9083,1117.76,425.9083" style="stroke:#181818;stroke-width:1;stroke-linejoin:miter;stroke-miterlimit:10;"/><text fill="#000000" font-family="sans-serif" font-size="13" lengthAdjust="spacing" textLength="150.6362" x="966.76" y="348.8666">Private manager-owned</text><text fill="#000000" font-family="sans-serif" font-size="13" lengthAdjust="spacing" textLength="87.604" x="998.2761" y="364.1772">provider state</text></g><!--link AquaBroker to GMN20--><g class="link" data-entity-1="ent0004" data-entity-2="ent0021" data-link-type="association" data-source-line="59" id="lnk22"><path d="M213.36,266.0383 C213.36,261.3183 213.36,257.9983 213.36,257.9983 C213.36,257.9983 805.76,257.9983 805.76,257.9983 C805.76,257.9983 805.76,259.3983 805.76,261.6683" fill="none" id="AquaBroker-GMN20" style="stroke:#181818;stroke-width:1;stroke-dasharray:7,7;"/></g><!--link WinCli to WinSqlite--><g class="link" data-entity-1="ent0028" data-entity-2="ent0029" data-link-type="dependency" data-source-line="81" id="lnk34"><path d="M2617.1,186.6983 C2617.1,200.0183 2617.1,213.9983 2617.1,213.9983 C2617.1,213.9983 1993.35,213.9983 1993.35,213.9983 C1993.35,213.9983 1993.35,237.7483 1993.35,261.5583" fill="none" id="WinCli-to-WinSqlite" style="stroke:#181818;stroke-width:1;"/><polygon fill="#181818" points="1993.35,266.5583,1997.35,257.5583,1993.35,261.5583,1989.35,257.5583,1993.35,266.5583" style="stroke:#181818;stroke-width:1;stroke-linejoin:miter;stroke-miterlimit:10;"/></g><!--link WinCli to WinStore--><g class="link" data-entity-1="ent0028" data-entity-2="ent0030" data-link-type="dependency" data-source-line="82" id="lnk35"><path d="M2630.76,186.6283 C2630.76,207.2883 2630.76,233.9983 2630.76,233.9983 C2630.76,233.9983 2227.29,233.9983 2227.29,233.9983 C2227.29,233.9983 2227.29,269.0583 2227.29,286.3383" fill="none" id="WinCli-to-WinStore" style="stroke:#181818;stroke-width:1;"/><polygon fill="#181818" points="2227.29,291.3383,2231.29,282.3383,2227.29,286.3383,2223.29,282.3383,2227.29,291.3383" style="stroke:#181818;stroke-width:1;stroke-linejoin:miter;stroke-miterlimit:10;"/></g><!--link WinDaemon to WinSqlite--><g class="link" data-entity-1="ent0027" data-entity-2="ent0029" data-link-type="dependency" data-source-line="83" id="lnk36"><path d="M2374.31,194.7383 C2374.31,202.1883 2374.31,207.9983 2374.31,207.9983 C2374.31,207.9983 1960.26,207.9983 1960.26,207.9983 C1960.26,207.9983 1960.26,235.4783 1960.26,261.3583" fill="none" id="WinDaemon-to-WinSqlite" style="stroke:#181818;stroke-width:1;"/><polygon fill="#181818" points="1960.26,266.3583,1964.26,257.3583,1960.26,261.3583,1956.26,257.3583,1960.26,266.3583" style="stroke:#181818;stroke-width:1;stroke-linejoin:miter;stroke-miterlimit:10;"/></g><!--link WinDaemon to WinStore--><g class="link" data-entity-1="ent0027" data-entity-2="ent0030" data-link-type="dependency" data-source-line="84" id="lnk37"><path d="M2403.6,194.7283 C2403.6,211.2283 2403.6,227.9983 2403.6,227.9983 C2403.6,227.9983 2188.31,227.9983 2188.31,227.9983 C2188.31,227.9983 2188.31,266.6883 2188.31,286.1783" fill="none" id="WinDaemon-to-WinStore" style="stroke:#181818;stroke-width:1;"/><polygon fill="#181818" points="2188.31,291.1783,2192.31,282.1783,2188.31,286.1783,2184.31,282.1783,2188.31,291.1783" style="stroke:#181818;stroke-width:1;stroke-linejoin:miter;stroke-miterlimit:10;"/></g><!--link WinCli to WinPty--><g class="link" data-entity-1="ent0028" data-entity-2="ent0032" data-link-type="dependency" data-source-line="85" id="lnk38"><path d="M2644.41,186.6583 C2644.41,211.8183 2644.41,247.9983 2644.41,247.9983 C2644.41,247.9983 2432.88,247.9983 2432.88,247.9983 C2432.88,247.9983 2432.88,251.2083 2432.88,260.9583" fill="none" id="WinCli-to-WinPty" style="stroke:#181818;stroke-width:1;"/><polygon fill="#181818" points="2432.88,265.9583,2436.88,256.9583,2432.88,260.9583,2428.88,256.9583,2432.88,265.9583" style="stroke:#181818;stroke-width:1;stroke-linejoin:miter;stroke-miterlimit:10;"/><text fill="#000000" font-family="sans-serif" font-size="13" lengthAdjust="spacing" textLength="86.2266" x="2473.34" y="244.5666">pane wrapper</text></g><!--link WinCli to WinTb--><g class="link" data-entity-1="ent0028" data-entity-2="ent0033" data-link-type="dependency" data-source-line="86" id="lnk39"><path d="M2658.07,186.4583 C2658.07,208.4783 2658.07,236.5783 2658.07,260.9583" fill="none" id="WinCli-to-WinTb" style="stroke:#181818;stroke-width:1;"/><polygon fill="#181818" points="2658.07,265.9583,2662.07,256.9583,2658.07,260.9583,2654.07,256.9583,2658.07,265.9583" style="stroke:#181818;stroke-width:1;stroke-linejoin:miter;stroke-miterlimit:10;"/><text fill="#000000" font-family="sans-serif" font-size="13" lengthAdjust="spacing" textLength="121.7988" x="2530.3195" y="207.7766">Official Bridge Only</text><text fill="#000000" font-family="sans-serif" font-size="13" lengthAdjust="spacing" textLength="132.2979" x="2525.07" y="223.0872">(ax does not inspect)</text></g><!--link WinTb to WinNative--><g class="link" data-entity-1="ent0033" data-entity-2="ent0031" data-link-type="dependency" data-source-line="87" id="lnk40"><path d="M2654.76,329.6783 C2654.76,352.5683 2654.76,399.0783 2654.76,420.9083" fill="none" id="WinTb-to-WinNative" style="stroke:#181818;stroke-width:1;"/><polygon fill="#181818" points="2654.76,425.9083,2658.76,416.9083,2654.76,420.9083,2650.76,416.9083,2654.76,425.9083" style="stroke:#181818;stroke-width:1;stroke-linejoin:miter;stroke-miterlimit:10;"/><text fill="#000000" font-family="sans-serif" font-size="13" lengthAdjust="spacing" textLength="150.6362" x="2503.76" y="348.8666">Private manager-owned</text><text fill="#000000" font-family="sans-serif" font-size="13" lengthAdjust="spacing" textLength="87.604" x="2535.2761" y="364.1772">provider state</text></g><!--link UnixCli to Mesh--><g class="link" data-entity-1="ent0003" data-entity-2="ent0041" data-link-type="dependency" data-source-line="92" id="lnk42"><path d="M627.22,150.9983 C788.76,150.9983 1362.15,150.9983 1362.15,150.9983 C1362.15,150.9983 1362.15,227.6883 1362.15,269.1683" fill="none" id="UnixCli-Mesh" style="stroke:#181818;stroke-width:1;"/><polygon fill="#181818" points="622.22,150.9983,631.22,154.9983,627.22,150.9983,631.22,146.9983,622.22,150.9983" style="stroke:#181818;stroke-width:1;stroke-linejoin:miter;stroke-miterlimit:10;"/><polygon fill="#181818" points="1362.15,274.1683,1366.15,265.1683,1362.15,269.1683,1358.15,265.1683,1362.15,274.1683" style="stroke:#181818;stroke-width:1;stroke-linejoin:miter;stroke-miterlimit:10;"/><text fill="#000000" font-family="sans-serif" font-size="13" lengthAdjust="spacing" textLength="144.1299" x="908.77" y="147.5666">SSH (rpc serve --stdio)</text></g><!--link WinCli to Mesh--><g class="link" data-entity-1="ent0028" data-entity-2="ent0041" data-link-type="dependency" data-source-line="93" id="lnk43"><path d="M2603.45,191.4083 C2603.45,199.2283 2603.45,200.9983 2603.45,200.9983 C2603.45,200.9983 1465.36,200.9983 1465.36,200.9983 C1465.36,200.9983 1465.36,240.6883 1465.36,269.3283" fill="none" id="WinCli-Mesh" style="stroke:#181818;stroke-width:1;"/><polygon fill="#181818" points="2603.45,186.4083,2599.45,195.4083,2603.45,191.4083,2607.45,195.4083,2603.45,186.4083" style="stroke:#181818;stroke-width:1;stroke-linejoin:miter;stroke-miterlimit:10;"/><polygon fill="#181818" points="1465.36,274.3283,1469.36,265.3283,1465.36,269.3283,1461.36,265.3283,1465.36,274.3283" style="stroke:#181818;stroke-width:1;stroke-linejoin:miter;stroke-miterlimit:10;"/><text fill="#000000" font-family="sans-serif" font-size="13" lengthAdjust="spacing" textLength="144.1299" x="1860.04" y="214.5666">SSH (rpc serve --stdio)</text></g><!--link WslDaemon to Mesh--><g class="link" data-entity-1="ent0025" data-entity-2="ent0041" data-link-type="dependency" data-source-line="94" id="lnk44"><path d="M1921.91,162.9983 C1751.53,162.9983 1413.76,162.9983 1413.76,162.9983 C1413.76,162.9983 1413.76,230.6683 1413.76,269.2783" fill="none" id="WslDaemon-Mesh" style="stroke:#181818;stroke-width:1;stroke-dasharray:7,7;"/><polygon fill="#181818" points="1926.91,162.9983,1917.91,158.9983,1921.91,162.9983,1917.91,166.9983,1926.91,162.9983" style="stroke:#181818;stroke-width:1;stroke-linejoin:miter;stroke-miterlimit:10;"/><polygon fill="#181818" points="1413.76,274.2783,1417.76,265.2783,1413.76,269.2783,1409.76,265.2783,1413.76,274.2783" style="stroke:#181818;stroke-width:1;stroke-linejoin:miter;stroke-miterlimit:10;"/><text fill="#000000" font-family="sans-serif" font-size="13" lengthAdjust="spacing" textLength="36.9751" x="1577.7" y="159.5666">(Sync)</text></g><?plantuml-src jLPjZnet4Fw-ls94fGgI4EWrrogdgD81HuD40iqIHPNonQmDMEUrzsmlnwhAV-_OQtQNbrEEgba-09wPPzwVjRddCYEQf30WoVrQgrpIeH9AmqzZ_qIcqf2AClWd0dnEbQ_TfvGfJPaEvs_ltCUVZvMquRJld-XR0pnHQQOaa_Of3tU_Zg_6erCFlrp_TZtiFyC39POiYM4_pC5A2RHwiaBZyTlXcrFuyM3Olnezfq92vVJ9uFlZtyUtf-Zz_c0uUlCCTAai-s6X2owPBJ86IjkDYgpAm2fOAciLzeLhbbYkP1HPRWM33yniOCGoeOhK3KJxLWZrABYnZCASCMtWPqX9CejXmNJA9H7mYH6HTgB8psYh5FPWocM-m-ylyVGAtYjZMq0CV9Pyv_w4TEl9QzMPmn0Jqah0N139ligs8BbCDhHd2WmZfPqAQKHOYh4V8P4T3AUJIcae-B566UFjGqvWeDKzq-W4S-4fPlFdvmbedv57S4gbZWUf1harLGbgntzDkNKnZfZcMwpHH5AsgoEC7mJAlMaOqTOaJNC4mM9_OWcsrFG6GYrDRMALFhJuI2nYmrohBNS7NgCsACNUuZZHgaUkkanI39GooXFYscbJR50theDTuC4nmYmZ3pc31J7ttO4Ysa5y89Ai6Ut6p1YS7PWzIXoC3SzmHB5_H1SDp6KTMEW6TBj_71VdH5GLeUxpKtR7qWFJ9gZB3suWmwc2HqsoB3IrgLVt6pLNE7TkEx201gk1coJWvLUPXKPqIMutO5BKFXVC0LI2CqqI2so7kyJb6fGKXRTgg1q5ck0S8ZFqW5ZBS6SGrq_k-UIMQ35RhNZ2NRyrfsi6CtI23SEDe8ePHpJ0fSbmvpiL21hkCSAWtU2eyQrpdVfEwwx23jCwSJ2MX0Puxj9ylS7mLiVR0e4ggbm1xXo0J1WikQIcdC4rm_aXhj2lWbRbQ9bpGLy1GLOeeROuQJpiV9Ck8I7IfHTgPfZUXY1mx7sKo8g1ehwWQ_LeQbR2WmOf1INahL9en5MGd19DQ7VxW9hGei5Ctrz9LuJAibh2RsStklA9Td6oOJGNkCfkFNinvimJrjcdz5rsH9qzELx2QsXs8QqvYqjO3VKl8pLyOymNVrVXpMtnV_8O8YADUSIoP7vX3ijm9AYohVfmtkP8rZHhm64-vtZhKEa_4K1f5n0kN7_Sf_9Ur5eGBWoEZUEgMSPa7B_tDmbVFVSZYlPqzSxvyhUC6t1gRPqbvRPY5CPIhZfHoEjPgljLWtUlNrVQxRYGYR-HDCd91mBm0kvscS0gMSZmGWDaVyFPqzGB-AWWovUe0ulX7Fpjnqt6NgQPi_VlKAGRwjuCH9YUKJYErlJcar6fwicjF8MNKBuih6SdImh7PnjyetI5MxWzD6KhaWkCZ1H24OhabUWYypUqYiV-1G00?></g></svg>