<svg xmlns="http://www.w3.org/2000/svg" xmlns:xlink="http://www.w3.org/1999/xlink" contentStyleType="text/css" data-diagram-type="DESCRIPTION" height="848px" preserveAspectRatio="none" style="width:2489px;height:848px;background:#FFFFFF;" version="1.1" viewBox="0 0 2489 848" width="2489px" zoomAndPan="magnify"><?plantuml 1.2026.6?><defs/><g><g class="title" data-source-line="26"><text fill="#000000" font-family="sans-serif" font-size="14" font-weight="700" lengthAdjust="spacing" textLength="445.915" x="1018.517" y="23.5352">AX Session Directory &#8212; Component and Authority Boundaries</text></g><!--cluster Clients--><g class="cluster" data-qualified-name="Clients" data-source-line="31" id="ent0003"><path d="M190.34,144.4683 L299.2658,144.4683 A3.75,3.75 0 0 1 301.7658,146.9683 L308.7658,166.9566 L559.34,166.9566 A2.5,2.5 0 0 1 561.84,169.4566 L561.84,245.9483 A2.5,2.5 0 0 1 559.34,248.4483 L190.34,248.4483 A2.5,2.5 0 0 1 187.84,245.9483 L187.84,146.9683 A2.5,2.5 0 0 1 190.34,144.4683" fill="none" style="stroke:#000000;stroke-width:1.5;"/><line style="stroke:#000000;stroke-width:1.5;" x1="187.84" x2="308.7658" y1="166.9566" y2="166.9566"/><text fill="#000000" font-family="sans-serif" font-size="14" font-weight="700" lengthAdjust="spacing" textLength="107.9258" x="191.84" y="160.0034">Client Surfaces</text></g><!--cluster Directory--><g class="cluster" data-qualified-name="Directory" data-source-line="36" id="ent0006"><path d="M27.34,272.4483 L196.7912,272.4483 A3.75,3.75 0 0 1 199.2912,274.9483 L206.2912,294.9366 L670.34,294.9366 A2.5,2.5 0 0 1 672.84,297.4366 L672.84,581.1283 A2.5,2.5 0 0 1 670.34,583.6283 L27.34,583.6283 A2.5,2.5 0 0 1 24.84,581.1283 L24.84,274.9483 A2.5,2.5 0 0 1 27.34,272.4483" fill="none" style="stroke:#000000;stroke-width:1.5;"/><line style="stroke:#000000;stroke-width:1.5;" x1="24.84" x2="206.2912" y1="294.9366" y2="294.9366"/><text fill="#000000" font-family="sans-serif" font-size="14" font-weight="700" lengthAdjust="spacing" textLength="168.4512" x="28.84" y="287.9834">Directory Control Plane</text></g><!--cluster AX--><g class="cluster" data-qualified-name="AX" data-source-line="46" id="ent0014"><path d="M1301.34,491.6383 L1465.6369,491.6383 A3.75,3.75 0 0 1 1468.1369,494.1383 L1475.1369,514.1266 L1897.34,514.1266 A2.5,2.5 0 0 1 1899.84,516.6266 L1899.84,576.6283 A2.5,2.5 0 0 1 1897.34,579.1283 L1301.34,579.1283 A2.5,2.5 0 0 1 1298.84,576.6283 L1298.84,494.1383 A2.5,2.5 0 0 1 1301.34,491.6383" fill="none" style="stroke:#000000;stroke-width:1.5;"/><line style="stroke:#000000;stroke-width:1.5;" x1="1298.84" x2="1475.1369" y1="514.1266" y2="514.1266"/><text fill="#000000" font-family="sans-serif" font-size="14" font-weight="700" lengthAdjust="spacing" textLength="163.2969" x="1302.84" y="507.1734">Existing AX Data Plane</text></g><!--cluster Host--><g class="cluster" data-qualified-name="Host" data-source-line="52" id="ent0018"><polygon fill="#FAFAFA" points="696.84,496.6383,706.84,486.6383,1274.84,486.6383,1274.84,813.7983,1264.84,823.7983,696.84,823.7983,696.84,496.6383" style="stroke:#616161;stroke-width:1;stroke-linejoin:miter;stroke-miterlimit:10;"/><line style="stroke:#616161;stroke-width:1;" x1="1264.84" x2="1274.84" y1="496.6383" y2="486.6383"/><line style="stroke:#616161;stroke-width:1;" x1="696.84" x2="1264.84" y1="496.6383" y2="496.6383"/><line style="stroke:#616161;stroke-width:1;" x1="1264.84" x2="1264.84" y1="496.6383" y2="823.7983"/><text fill="#000000" font-family="sans-serif" font-size="14" font-weight="700" lengthAdjust="spacing" textLength="165.71" x="898.985" y="513.1734">Per Local or Mesh Host</text></g><!--cluster CloneSystem--><g class="cluster" data-qualified-name="CloneSystem" data-source-line="59" id="ent0023"><path d="M1926.34,483.3883 L2124.8507,483.3883 A3.75,3.75 0 0 1 2127.3507,485.8883 L2134.3507,505.8766 L2134.34,505.8766 A2.5,2.5 0 0 1 2136.84,508.3766 L2136.84,584.8683 A2.5,2.5 0 0 1 2134.34,587.3683 L1926.34,587.3683 A2.5,2.5 0 0 1 1923.84,584.8683 L1923.84,485.8883 A2.5,2.5 0 0 1 1926.34,483.3883" fill="none" style="stroke:#000000;stroke-width:1.5;"/><line style="stroke:#000000;stroke-width:1.5;" x1="1923.84" x2="2134.3507" y1="505.8766" y2="505.8766"/><text fill="#000000" font-family="sans-serif" font-size="14" font-weight="700" lengthAdjust="spacing" textLength="197.5107" x="1927.84" y="498.9234">Session Cloning Subsystem</text></g><!--entity TUI--><g class="entity" data-qualified-name="Clients.TUI" data-source-line="32" id="ent0004"><rect fill="#E3F2FD" height="36.4883" rx="2.5" ry="2.5" style="stroke:#1565C0;stroke-width:0.5;" width="156.2266" x="203.73" y="187.7183"/><text fill="#000000" font-family="sans-serif" font-size="14" lengthAdjust="spacing" textLength="136.2266" x="213.73" y="211.2534">Session Browser TUI</text></g><!--entity Query--><g class="entity" data-qualified-name="Clients.Query" data-source-line="33" id="ent0005"><rect fill="#E3F2FD" height="52.9766" rx="2.5" ry="2.5" style="stroke:#1565C0;stroke-width:0.5;" width="150.9697" x="395.36" y="179.4683"/><text fill="#000000" font-family="sans-serif" font-size="14" lengthAdjust="spacing" textLength="89.6396" x="405.36" y="203.0034">Human CLI +</text><text fill="#000000" font-family="sans-serif" font-size="14" lengthAdjust="spacing" textLength="130.9697" x="405.36" y="219.4917">Typed Agent Query</text></g><!--entity Controller--><g class="entity" data-qualified-name="Directory.Controller" data-source-line="37" id="ent0007"><rect fill="#E3F2FD" height="36.4883" rx="2.5" ry="2.5" style="stroke:#1565C0;stroke-width:0.5;" width="154.7021" x="298.49" y="307.4483"/><text fill="#000000" font-family="sans-serif" font-size="14" lengthAdjust="spacing" textLength="134.7021" x="308.49" y="330.9834">Directory Controller</text></g><!--entity Catalog--><g class="entity" data-qualified-name="Directory.Catalog" data-source-line="38" id="ent0008"><rect fill="#E3F2FD" height="36.4883" rx="2.5" ry="2.5" style="stroke:#1565C0;stroke-width:0.5;" width="159.3711" x="98.16" y="412.1783"/><text fill="#000000" font-family="sans-serif" font-size="14" lengthAdjust="spacing" textLength="139.3711" x="108.16" y="435.7134">Catalog + Freshness</text></g><!--entity Lineage--><g class="entity" data-qualified-name="Directory.Lineage" data-source-line="39" id="ent0009"><rect fill="#E3F2FD" height="36.4883" rx="2.5" ry="2.5" style="stroke:#1565C0;stroke-width:0.5;" width="165.8789" x="293.9" y="526.6383"/><text fill="#000000" font-family="sans-serif" font-size="14" lengthAdjust="spacing" textLength="145.8789" x="303.9" y="550.1734">Conversation Lineage</text></g><!--entity Enrichment--><g class="entity" data-qualified-name="Directory.Enrichment" data-source-line="40" id="ent0010"><rect fill="#E3F2FD" height="52.9766" rx="2.5" ry="2.5" style="stroke:#1565C0;stroke-width:0.5;" width="167.4102" x="292.14" y="403.9383"/><text fill="#000000" font-family="sans-serif" font-size="14" lengthAdjust="spacing" textLength="147.4102" x="302.14" y="427.4734">Enrichment Scheduler</text><text fill="#000000" font-family="sans-serif" font-size="14" lengthAdjust="spacing" textLength="54.4756" x="302.14" y="443.9617">+ Policy</text></g><!--entity Planner--><g class="entity" data-qualified-name="Directory.Planner" data-source-line="41" id="ent0011"><rect fill="#E3F2FD" height="36.4883" rx="2.5" ry="2.5" style="stroke:#1565C0;stroke-width:0.5;" width="162.7891" x="494.45" y="412.1783"/><text fill="#000000" font-family="sans-serif" font-size="14" lengthAdjust="spacing" textLength="142.7891" x="504.45" y="435.7134">Continuation Planner</text></g><!--entity Index--><g class="entity" data-qualified-name="Directory.Index" data-source-line="42" id="ent0012"><path d="M495.01,532.1383 C495.01,522.1383 575.8406,522.1383 575.8406,522.1383 C575.8406,522.1383 656.6711,522.1383 656.6711,532.1383 L656.6711,557.6266 C656.6711,567.6266 575.8406,567.6266 575.8406,567.6266 C575.8406,567.6266 495.01,567.6266 495.01,557.6266 L495.01,532.1383" fill="#E8F5E9" style="stroke:#2E7D32;stroke-width:0.5;"/><path d="M495.01,532.1383 C495.01,542.1383 575.8406,542.1383 575.8406,542.1383 C575.8406,542.1383 656.6711,542.1383 656.6711,532.1383" fill="none" style="stroke:#2E7D32;stroke-width:0.5;"/><text fill="#000000" font-family="sans-serif" font-size="14" lengthAdjust="spacing" textLength="141.6611" x="505.01" y="559.6734">Derived SQLite Index</text></g><!--entity Records--><g class="entity" data-qualified-name="Directory.Records" data-source-line="43" id="ent0013"><path d="M41.06,532.1383 C41.06,522.1383 149.8393,522.1383 149.8393,522.1383 C149.8393,522.1383 258.6186,522.1383 258.6186,532.1383 L258.6186,557.6266 C258.6186,567.6266 149.8393,567.6266 149.8393,567.6266 C149.8393,567.6266 41.06,567.6266 41.06,557.6266 L41.06,532.1383" fill="#E8F5E9" style="stroke:#2E7D32;stroke-width:0.5;"/><path d="M41.06,532.1383 C41.06,542.1383 149.8393,542.1383 149.8393,542.1383 C149.8393,542.1383 258.6186,542.1383 258.6186,532.1383" fill="none" style="stroke:#2E7D32;stroke-width:0.5;"/><text fill="#000000" font-family="sans-serif" font-size="14" lengthAdjust="spacing" textLength="197.5586" x="51.06" y="559.6734">Immutable Directory Records</text></g><!--entity AXState--><g class="entity" data-qualified-name="AX.AXState" data-source-line="47" id="ent0015"><rect fill="#E3F2FD" height="36.4883" rx="2.5" ry="2.5" style="stroke:#1565C0;stroke-width:0.5;" width="200.79" x="1314.45" y="526.6383"/><text fill="#000000" font-family="sans-serif" font-size="14" lengthAdjust="spacing" textLength="180.79" x="1324.45" y="550.1734">State / Lease / Checkpoint</text></g><!--entity AXMesh--><g class="entity" data-qualified-name="AX.AXMesh" data-source-line="48" id="ent0016"><rect fill="#E3F2FD" height="36.4883" rx="2.5" ry="2.5" style="stroke:#1565C0;stroke-width:0.5;" width="128.6982" x="1550.49" y="526.6383"/><text fill="#000000" font-family="sans-serif" font-size="14" lengthAdjust="spacing" textLength="108.6982" x="1560.49" y="550.1734">Mesh / Transfer</text></g><!--entity AXRuntime--><g class="entity" data-qualified-name="AX.AXRuntime" data-source-line="49" id="ent0017"><rect fill="#E3F2FD" height="36.4883" rx="2.5" ry="2.5" style="stroke:#1565C0;stroke-width:0.5;" width="169.3037" x="1714.19" y="526.6383"/><text fill="#000000" font-family="sans-serif" font-size="14" lengthAdjust="spacing" textLength="149.3037" x="1724.19" y="550.1734">Workspace / Terminal</text></g><!--entity NodeService--><g class="entity" data-qualified-name="Host.NodeService" data-source-line="53" id="ent0019"><rect fill="#E3F2FD" height="36.4883" rx="2.5" ry="2.5" style="stroke:#1565C0;stroke-width:0.5;" width="173.8564" x="1057.91" y="526.6383"/><text fill="#000000" font-family="sans-serif" font-size="14" lengthAdjust="spacing" textLength="153.8564" x="1067.91" y="550.1734">Directory Node Service</text></g><!--entity Adapter--><g class="entity" data-qualified-name="Host.Adapter" data-source-line="54" id="ent0020"><rect fill="#E3F2FD" height="52.9766" rx="2.5" ry="2.5" style="stroke:#1565C0;stroke-width:0.5;" width="282.2881" x="712.7" y="632.8483"/><text fill="#000000" font-family="sans-serif" font-size="14" lengthAdjust="spacing" textLength="143.5889" x="722.7" y="656.3834">Environment Adapter</text><text fill="#000000" font-family="sans-serif" font-size="14" lengthAdjust="spacing" textLength="262.2881" x="722.7" y="672.8717">(one implementation per environment)</text></g><!--entity Worker--><g class="entity" data-qualified-name="Host.Worker" data-source-line="55" id="ent0021"><rect fill="#E3F2FD" height="36.4883" rx="2.5" ry="2.5" style="stroke:#1565C0;stroke-width:0.5;" width="228.9609" x="1030.36" y="641.0883"/><text fill="#000000" font-family="sans-serif" font-size="14" lengthAdjust="spacing" textLength="208.9609" x="1040.36" y="664.6234">Sandboxed Enrichment Worker</text></g><!--entity NativeStores--><g class="entity" data-qualified-name="Host.NativeStores" data-source-line="56" id="ent0022"><path d="M760.69,755.8183 C760.69,745.8183 853.8389,745.8183 853.8389,745.8183 C853.8389,745.8183 946.9879,745.8183 946.9879,755.8183 L946.9879,797.7948 C946.9879,807.7948 853.8389,807.7948 853.8389,807.7948 C853.8389,807.7948 760.69,807.7948 760.69,797.7948 L760.69,755.8183" fill="#E8F5E9" style="stroke:#2E7D32;stroke-width:0.5;"/><path d="M760.69,755.8183 C760.69,765.8183 853.8389,765.8183 853.8389,765.8183 C853.8389,765.8183 946.9879,765.8183 946.9879,755.8183" fill="none" style="stroke:#2E7D32;stroke-width:0.5;"/><text fill="#000000" font-family="sans-serif" font-size="14" lengthAdjust="spacing" textLength="166.2979" x="770.69" y="783.3534">Claude / Codex / Future</text><text fill="#000000" font-family="sans-serif" font-size="14" lengthAdjust="spacing" textLength="88.874" x="770.69" y="799.8417">Native Stores</text></g><!--entity Cloning--><g class="entity" data-qualified-name="CloneSystem.Cloning" data-source-line="60" id="ent0024"><rect fill="#E3F2FD" height="52.9766" rx="2.5" ry="2.5" style="stroke:#1565C0;stroke-width:0.5;" width="160.0615" x="1939.81" y="518.3883"/><text fill="#000000" font-family="sans-serif" font-size="14" lengthAdjust="spacing" textLength="140.0615" x="1949.81" y="541.9234">Canonical Capture +</text><text fill="#000000" font-family="sans-serif" font-size="14" lengthAdjust="spacing" textLength="116.375" x="1949.81" y="558.4117">Target Projection</text></g><!--entity Operator--><g class="entity" data-qualified-name="Operator" data-source-line="28" id="ent0001"><ellipse cx="281.8459" cy="51.4883" fill="#F1F1F1" rx="8" ry="8" style="stroke:#181818;stroke-width:0.5;"/><path d="M281.8459,59.4883 L281.8459,86.4883 M268.8459,67.4883 L294.8459,67.4883 M281.8459,86.4883 L268.8459,101.4883 M281.8459,86.4883 L294.8459,101.4883" fill="none" style="stroke:#181818;stroke-width:0.5;"/><text fill="#000000" font-family="sans-serif" font-size="14" lengthAdjust="spacing" textLength="60.5117" x="251.59" y="116.5234">Operator</text></g><!--entity Automation--><g class="entity" data-qualified-name="Automation" data-source-line="29" id="ent0002"><ellipse cx="470.8455" cy="51.4883" fill="#F1F1F1" rx="8" ry="8" style="stroke:#181818;stroke-width:0.5;"/><path d="M470.8455,59.4883 L470.8455,86.4883 M457.8455,67.4883 L483.8455,67.4883 M470.8455,86.4883 L457.8455,101.4883 M470.8455,86.4883 L483.8455,101.4883" fill="none" style="stroke:#181818;stroke-width:0.5;"/><text fill="#000000" font-family="sans-serif" font-size="14" lengthAdjust="spacing" textLength="135.8711" x="402.91" y="116.5234">Automation / Agent</text></g><g class="entity" data-qualified-name="GMN47" data-source-line="91" id="ent0048"><path d="M2152.74,516.9183 L2152.74,572.8499 L2474.949,572.8499 L2474.949,526.9183 L2464.949,516.9183 L2152.74,516.9183" fill="#FFF9C4" style="stroke:#F9A825;stroke-width:0.5;"/><path d="M2464.949,516.9183 L2464.949,526.9183 L2474.949,526.9183 L2464.949,516.9183" fill="#FFF9C4" style="stroke:#F9A825;stroke-width:1;"/><text fill="#000000" font-family="sans-serif" font-size="13" lengthAdjust="spacing" textLength="282.0581" x="2158.74" y="534.4866">The index and display text are not authority.</text><text fill="#000000" font-family="sans-serif" font-size="13" lengthAdjust="spacing" textLength="245.7559" x="2158.74" y="549.7972">Native transcripts remain source-local;</text><text fill="#000000" font-family="sans-serif" font-size="13" lengthAdjust="spacing" textLength="301.209" x="2158.74" y="565.1077">AX, directory, and cloning records persist truth.</text></g><!--link Operator to TUI--><g class="link" data-entity-1="ent0001" data-entity-2="ent0004" data-link-type="dependency" data-source-line="63" id="lnk25"><path d="M281.84,119.6683 C281.84,142.1483 281.84,164.5083 281.84,182.3083" fill="none" id="Operator-to-TUI" style="stroke:#181818;stroke-width:1;"/><polygon fill="#181818" points="281.84,187.3083,285.84,178.3083,281.84,182.3083,277.84,178.3083,281.84,187.3083" style="stroke:#181818;stroke-width:1;stroke-linejoin:miter;stroke-miterlimit:10;"/><text fill="#000000" font-family="sans-serif" font-size="13" lengthAdjust="spacing" textLength="214.4111" x="66.84" y="150.0566">browse / select / confirm / attach</text></g><!--link Automation to Query--><g class="link" data-entity-1="ent0002" data-entity-2="ent0005" data-link-type="dependency" data-source-line="64" id="lnk26"><path d="M470.84,119.6683 C470.84,138.9983 470.84,156.9383 470.84,174.3083" fill="none" id="Automation-to-Query" style="stroke:#181818;stroke-width:1;"/><polygon fill="#181818" points="470.84,179.3083,474.84,170.3083,470.84,174.3083,466.84,170.3083,470.84,179.3083" style="stroke:#181818;stroke-width:1;stroke-linejoin:miter;stroke-miterlimit:10;"/><text fill="#000000" font-family="sans-serif" font-size="13" lengthAdjust="spacing" textLength="233.2764" x="471.84" y="146.0566">projected reads / guarded mutations</text></g><!--link TUI to Controller--><g class="link" data-entity-1="ent0004" data-entity-2="ent0007" data-link-type="dependency" data-source-line="65" id="lnk27"><path d="M329.22,224.6683 C329.22,247.1583 329.22,279.6783 329.22,302.1183" fill="none" id="TUI-to-Controller" style="stroke:#181818;stroke-width:1;"/><polygon fill="#181818" points="329.22,307.1183,333.22,298.1183,329.22,302.1183,325.22,298.1183,329.22,307.1183" style="stroke:#181818;stroke-width:1;stroke-linejoin:miter;stroke-miterlimit:10;"/></g><!--link Query to Controller--><g class="link" data-entity-1="ent0005" data-entity-2="ent0007" data-link-type="dependency" data-source-line="66" id="lnk28"><path d="M424.28,232.8283 C424.28,255.4483 424.28,282.1983 424.28,302.0983" fill="none" id="Query-to-Controller" style="stroke:#181818;stroke-width:1;"/><polygon fill="#181818" points="424.28,307.0983,428.28,298.0983,424.28,302.0983,420.28,298.0983,424.28,307.0983" style="stroke:#181818;stroke-width:1;stroke-linejoin:miter;stroke-miterlimit:10;"/></g><!--link Controller to Catalog--><g class="link" data-entity-1="ent0007" data-entity-2="ent0008" data-link-type="dependency" data-source-line="68" id="lnk29"><path d="M298.13,325.7983 C263.61,325.7983 230.63,325.7983 230.63,325.7983 C230.63,325.7983 230.63,376.6283 230.63,406.7183" fill="none" id="Controller-to-Catalog" style="stroke:#181818;stroke-width:1;"/><polygon fill="#181818" points="230.63,411.7183,234.63,402.7183,230.63,406.7183,226.63,402.7183,230.63,411.7183" style="stroke:#181818;stroke-width:1;stroke-linejoin:miter;stroke-miterlimit:10;"/></g><!--link Controller to Enrichment--><g class="link" data-entity-1="ent0007" data-entity-2="ent0010" data-link-type="dependency" data-source-line="69" id="lnk30"><path d="M375.84,344.4183 C375.84,360.8883 375.84,380.0683 375.84,398.5983" fill="none" id="Controller-to-Enrichment" style="stroke:#181818;stroke-width:1;"/><polygon fill="#181818" points="375.84,403.5983,379.84,394.5983,375.84,398.5983,371.84,394.5983,375.84,403.5983" style="stroke:#181818;stroke-width:1;stroke-linejoin:miter;stroke-miterlimit:10;"/></g><!--link Controller to Planner--><g class="link" data-entity-1="ent0007" data-entity-2="ent0011" data-link-type="dependency" data-source-line="70" id="lnk31"><path d="M453.62,325.7983 C487.83,325.7983 520.39,325.7983 520.39,325.7983 C520.39,325.7983 520.39,376.6283 520.39,406.7183" fill="none" id="Controller-to-Planner" style="stroke:#181818;stroke-width:1;"/><polygon fill="#181818" points="520.39,411.7183,524.39,402.7183,520.39,406.7183,516.39,402.7183,520.39,411.7183" style="stroke:#181818;stroke-width:1;stroke-linejoin:miter;stroke-miterlimit:10;"/></g><!--link Catalog to Lineage--><g class="link" data-entity-1="ent0008" data-entity-2="ent0009" data-link-type="dependency" data-source-line="71" id="lnk32"><path d="M257.94,430.7983 C268.29,430.7983 275.38,430.7983 275.38,430.7983 C275.38,430.7983 275.38,544.7983 275.38,544.7983 C275.38,544.7983 277.75,544.7983 288.52,544.7983" fill="none" id="Catalog-to-Lineage" style="stroke:#181818;stroke-width:1;"/><polygon fill="#181818" points="293.52,544.7983,284.52,540.7983,288.52,544.7983,284.52,548.7983,293.52,544.7983" style="stroke:#181818;stroke-width:1;stroke-linejoin:miter;stroke-miterlimit:10;"/></g><!--link Catalog to Index--><g class="link" data-entity-1="ent0008" data-entity-2="ent0012" data-link-type="dependency" data-source-line="72" id="lnk33"><path d="M217.69,448.8083 C217.69,469.9483 217.69,501.7983 217.69,501.7983 C217.69,501.7983 575.84,501.7983 575.84,501.7983 C575.84,501.7983 575.84,506.5783 575.84,516.8283" fill="none" id="Catalog-to-Index" style="stroke:#181818;stroke-width:1;"/><polygon fill="#181818" points="575.84,521.8283,579.84,512.8283,575.84,516.8283,571.84,512.8283,575.84,521.8283" style="stroke:#181818;stroke-width:1;stroke-linejoin:miter;stroke-miterlimit:10;"/><text fill="#000000" font-family="sans-serif" font-size="13" lengthAdjust="spacing" textLength="102.7305" x="277.28" y="498.3666">rebuildable view</text></g><!--link Catalog to Records--><g class="link" data-entity-1="ent0008" data-entity-2="ent0013" data-link-type="dependency" data-source-line="73" id="lnk34"><path d="M138,449.0683 C138,468.9583 138,495.4883 138,516.8983" fill="none" id="Catalog-to-Records" style="stroke:#181818;stroke-width:1;"/><polygon fill="#181818" points="138,521.8983,142,512.8983,138,516.8983,134,512.8983,138,521.8983" style="stroke:#181818;stroke-width:1;stroke-linejoin:miter;stroke-miterlimit:10;"/><text fill="#000000" font-family="sans-serif" font-size="13" lengthAdjust="spacing" textLength="130.2603" x="7" y="482.0566">immutable metadata</text></g><!--link Enrichment to NodeService--><g class="link" data-entity-1="ent0010" data-entity-2="ent0019" data-link-type="dependency" data-source-line="75" id="lnk35"><path d="M460.01,452.7983 C653.97,452.7983 1115.87,452.7983 1115.87,452.7983 C1115.87,452.7983 1115.87,494.3383 1115.87,521.2483" fill="none" id="Enrichment-to-NodeService" style="stroke:#181818;stroke-width:1;"/><polygon fill="#181818" points="1115.87,526.2483,1119.87,517.2483,1115.87,521.2483,1111.87,517.2483,1115.87,526.2483" style="stroke:#181818;stroke-width:1;stroke-linejoin:miter;stroke-miterlimit:10;"/><text fill="#000000" font-family="sans-serif" font-size="13" lengthAdjust="spacing" textLength="186.2593" x="637.66" y="466.3666">idempotent source-local jobs</text></g><!--link NodeService to Adapter--><g class="link" data-entity-1="ent0019" data-entity-2="ent0020" data-link-type="dependency" data-source-line="76" id="lnk36"><path d="M1092.69,563.4783 C1092.69,590.3383 1092.69,636.7983 1092.69,636.7983 C1092.69,636.7983 1051.77,636.7983 1000.19,636.7983" fill="none" id="NodeService-to-Adapter" style="stroke:#181818;stroke-width:1;"/><polygon fill="#181818" points="995.19,636.7983,1004.19,640.7983,1000.19,636.7983,1004.19,632.7983,995.19,636.7983" style="stroke:#181818;stroke-width:1;stroke-linejoin:miter;stroke-miterlimit:10;"/><text fill="#000000" font-family="sans-serif" font-size="13" lengthAdjust="spacing" textLength="206.1021" x="1081.6" y="633.3666">inventory / preview / exact head</text></g><!--link NodeService to Worker--><g class="link" data-entity-1="ent0019" data-entity-2="ent0021" data-link-type="dependency" data-source-line="77" id="lnk37"><path d="M1162.23,563.5183 C1162.23,584.8083 1162.23,614.4183 1162.23,635.6983" fill="none" id="NodeService-to-Worker" style="stroke:#181818;stroke-width:1;"/><polygon fill="#181818" points="1162.23,640.6983,1166.23,631.6983,1162.23,635.6983,1158.23,631.6983,1162.23,640.6983" style="stroke:#181818;stroke-width:1;stroke-linejoin:miter;stroke-miterlimit:10;"/><text fill="#000000" font-family="sans-serif" font-size="13" lengthAdjust="spacing" textLength="132.3359" x="1029.23" y="615.6766">bounded typed input</text></g><!--link Worker to NodeService--><g class="link" data-entity-1="ent0021" data-entity-2="ent0019" data-link-type="dependency" data-source-line="79" id="lnk39"><path d="M1127.46,640.6883 C1127.46,619.4083 1127.46,589.7983 1127.46,568.5183" fill="none" id="Worker-to-NodeService" style="stroke:#181818;stroke-width:1;"/><polygon fill="#181818" points="1127.46,563.5183,1123.46,572.5183,1127.46,568.5183,1131.46,572.5183,1127.46,563.5183" style="stroke:#181818;stroke-width:1;stroke-linejoin:miter;stroke-miterlimit:10;"/><text fill="#000000" font-family="sans-serif" font-size="13" lengthAdjust="spacing" textLength="172.8149" x="954.46" y="598.6666">typed annotation candidate</text></g><!--link Adapter to NativeStores--><g class="link" data-entity-1="ent0020" data-entity-2="ent0022" data-link-type="dependency" data-source-line="78" id="lnk38"><path d="M853.84,686.2883 C853.84,703.8983 853.84,721.9683 853.84,740.4083" fill="none" id="Adapter-to-NativeStores" style="stroke:#181818;stroke-width:1;"/><polygon fill="#181818" points="853.84,745.4083,857.84,736.4083,853.84,740.4083,849.84,736.4083,853.84,745.4083" style="stroke:#181818;stroke-width:1;stroke-linejoin:miter;stroke-miterlimit:10;"/><text fill="#000000" font-family="sans-serif" font-size="13" lengthAdjust="spacing" textLength="121.0625" x="731.84" y="712.4166">local authority only</text></g><!--link NodeService to AXMesh--><g class="link" data-entity-1="ent0019" data-entity-2="ent0016" data-link-type="dependency" data-source-line="81" id="lnk40"><path d="M1197,563.5283 C1197,580.4583 1197,602.7983 1197,602.7983 C1197,602.7983 1614.84,602.7983 1614.84,602.7983 C1614.84,602.7983 1614.84,585.4583 1614.84,568.5283" fill="none" id="NodeService-to-AXMesh" style="stroke:#181818;stroke-width:1;"/><polygon fill="#181818" points="1614.84,563.5283,1610.84,572.5283,1614.84,568.5283,1618.84,572.5283,1614.84,563.5283" style="stroke:#181818;stroke-width:1;stroke-linejoin:miter;stroke-miterlimit:10;"/><text fill="#000000" font-family="sans-serif" font-size="13" lengthAdjust="spacing" textLength="185.9038" x="1219.92" y="599.3666">sanitized record anti-entropy</text></g><!--link Planner to AXState--><g class="link" data-entity-1="ent0011" data-entity-2="ent0015" data-link-type="dependency" data-source-line="82" id="lnk41"><path d="M657.43,441.7983 C868.27,441.7983 1414.84,441.7983 1414.84,441.7983 C1414.84,441.7983 1414.84,491.7983 1414.84,521.4483" fill="none" id="Planner-to-AXState" style="stroke:#181818;stroke-width:1;"/><polygon fill="#181818" points="1414.84,526.4483,1418.84,517.4483,1414.84,521.4483,1410.84,517.4483,1414.84,526.4483" style="stroke:#181818;stroke-width:1;stroke-linejoin:miter;stroke-miterlimit:10;"/><text fill="#000000" font-family="sans-serif" font-size="13" lengthAdjust="spacing" textLength="130.9585" x="947.46" y="438.3666">ownership / lifecycle</text></g><!--link Planner to AXMesh--><g class="link" data-entity-1="ent0011" data-entity-2="ent0016" data-link-type="dependency" data-source-line="83" id="lnk42"><path d="M657.37,433.7983 C902.31,433.7983 1614.84,433.7983 1614.84,433.7983 C1614.84,433.7983 1614.84,489.6683 1614.84,521.2883" fill="none" id="Planner-to-AXMesh" style="stroke:#181818;stroke-width:1;"/><polygon fill="#181818" points="1614.84,526.2883,1618.84,517.2883,1614.84,521.2883,1610.84,517.2883,1614.84,526.2883" style="stroke:#181818;stroke-width:1;stroke-linejoin:miter;stroke-miterlimit:10;"/><text fill="#000000" font-family="sans-serif" font-size="13" lengthAdjust="spacing" textLength="97.9189" x="1084.35" y="430.3666">route / transfer</text></g><!--link Planner to AXRuntime--><g class="link" data-entity-1="ent0011" data-entity-2="ent0017" data-link-type="dependency" data-source-line="84" id="lnk43"><path d="M657.51,426.7983 C931.19,426.7983 1798.84,426.7983 1798.84,426.7983 C1798.84,426.7983 1798.84,487.8783 1798.84,521.1683" fill="none" id="Planner-to-AXRuntime" style="stroke:#181818;stroke-width:1;"/><polygon fill="#181818" points="1798.84,526.1683,1802.84,517.1683,1798.84,521.1683,1794.84,517.1683,1798.84,526.1683" style="stroke:#181818;stroke-width:1;stroke-linejoin:miter;stroke-miterlimit:10;"/><text fill="#000000" font-family="sans-serif" font-size="13" lengthAdjust="spacing" textLength="177.5059" x="1278.86" y="440.3666">workspace / launch / attach</text></g><!--link Planner to Cloning--><g class="link" data-entity-1="ent0011" data-entity-2="ent0024" data-link-type="dependency" data-source-line="85" id="lnk44"><path d="M657.54,419.7983 C966.55,419.7983 2046.52,419.7983 2046.52,419.7983 C2046.52,419.7983 2046.52,476.2983 2046.52,513.0483" fill="none" id="Planner-to-Cloning" style="stroke:#181818;stroke-width:1;"/><polygon fill="#181818" points="2046.52,518.0483,2050.52,509.0483,2046.52,513.0483,2042.52,509.0483,2046.52,518.0483" style="stroke:#181818;stroke-width:1;stroke-linejoin:miter;stroke-miterlimit:10;"/><text fill="#000000" font-family="sans-serif" font-size="13" lengthAdjust="spacing" textLength="213.2114" x="1187.15" y="416.3666">cross-environment plan + fidelity</text></g><!--link AXState to NodeService--><!--link NodeService to Cloning--><!--link Records to GMN47--><g class="link" data-entity-1="ent0013" data-entity-2="ent0048" data-link-type="association" data-source-line="91" id="lnk49"><path d="M177.84,521.7583 C177.84,500.3483 177.84,471.7983 177.84,471.7983 C177.84,471.7983 2313.84,471.7983 2313.84,471.7983 C2313.84,471.7983 2313.84,495.8983 2313.84,516.4183" fill="none" id="Records-GMN47" style="stroke:#181818;stroke-width:1;stroke-dasharray:7,7;"/></g><?plantuml-src ZLRTRjis5BxdKn3UpORKJPisNPC10rmbHWDaNLfdM81b5xHqRB6HI86a77l3W3t4dd1Fiey_jcMf6IfV-EZeE_y_f7sGgX56rFoTo1-MHhUgo7Ib3Vzc6XvcTuXSrurMfDpCRIhYXd8drBAY3gIIYjoc8QwDA_MNPFcVZECPMBjyDJsPNiHlsXHa4l_bwPlJx4NWJxLoYViYFEolZeL2E34Nbfuqy7PwUdasD71o-Vt5gvElCA1qyQJowSJ_XihVlFI_hrBkdbO-dPvbhuVAfsUJjoUdJoftkk5EyxbsJYCzqjTBQiMOamxbczpn6LaB3hy8txJPy7___eTdkr89LV19Yq8QwJQm3PU4aMGP4nxEVsx8213fTGIiheKtme_vP0aL8ouitxCPQn2SM18VPPNq9cQjMOYSR016darvsBVCQEleEwCVBHb--yjL4C1_7_g-hONYsVKLFxfNjsZ58dh2FxPaDa4gK4ZGtfbz0Z8aqkYAtrH2KK3llmtS6eXLP68WkzU-I8OkhVII7_6f8Lig11Ob8dy0rsf5niQSNcEuu6x09xgFlrH6vcKTCfkNLBHmuLuTyHjToJn6luTymPYJget6V09K2YVH0RyRiz456Rb2UcSVhoMQzqeLj0xmGFN0LtNTWaRVxPFsYNAqSum_qGTLkLnB2uUMlbKleAbJ5726JU84t3Zcr-Gj7lEifFoXqNBRXNS1q9Vw2LK0-DO8PHSfticTv_QHlshpOE6SrtrBffPAL0d-gKNcQlBUXoqnka6JNkjSL5Y4F9XuhstqmnF_rqeVl88PcPNCOwoUaTw7vLv9erMezwGGZVFL_XOVkQoRYZm_LXE3ocaF_Yxw7IK6USJOp_KQbUrqamy-PIUIlVfcbMYBa7LukyR_j7MjeNlr0Gwi411YIrCUEP5nKE_jb6ULLhxiitPkDzPHdPO3_9k5zs7wCg4Wu_ET8IOO3jClp98Slp7wSrnzEptGxYrlznSVZt_qkuIVytdOCF3VKWKX4BbM2sbgKC8vaPUii-MyNDWca6oY6QJDa2WiyCjMO5iNt7U-XrlcRNYPpdw8uZqcszFnKzeEFNPdb7jVjXExNJUUjrqPNLuOLJXlQDxAgWW3kfBqU01AimcOt4rnJKxuwZFMQH8FxdIh5oW8DNB-ezMjoMbSXQduhEUMTQ5UDFMZ5yFMKs4QZf5NyXw1eZNE6LuYkmFHs9E-VlwGGivTsFmuNLl7jdg3Uvtc0pnw8tPdd5RLXYLbmsYYKcHMfx7ACIgoy5jb64pO8H2oGaad_mXzuVC8UIV7vClLR5WgL1A9A-oSwqVmR2aRH5t91UMR7DUiGsnIZuj2s7ekBR0UAcqc01yxwml3gl9otz9TcUtqdVFSQ6l7dRN16-1mT2rGrWhfOcphylYtKXO5gT-DN9RkC767gUa3j-F8mWqeSBbUxCu3pczBRBFGfluwKaWB9pRSqHht4ymvnFRrUmvyMZWX7xcH3UuJXceXrK47_W3avEvPkXQXqvu5zNaAtgIMnuAmE8IW3IQUCmB4-yd-0m00?></g></svg>