<svg xmlns="http://www.w3.org/2000/svg" xmlns:xlink="http://www.w3.org/1999/xlink" contentStyleType="text/css" data-diagram-type="STATE" height="757px" preserveAspectRatio="none" style="width:1352px;height:757px;background:#FFFFFF;" version="1.1" viewBox="0 0 1352 757" width="1352px" zoomAndPan="magnify"><?plantuml 1.2026.6?><defs/><g><g class="title" data-source-line="14"><text fill="#000000" font-family="sans-serif" font-size="14" font-weight="700" lengthAdjust="spacing" textLength="297.9033" x="523.9181" y="23.5352">Logical Session Ownership State Machine</text></g><g class="entity" data-qualified-name="PreparedMaterialized" data-source-line="16" id="ent0001"><rect fill="#E3F2FD" height="50" rx="12.5" ry="12.5" style="stroke:#1565C0;stroke-width:0.5;" width="179.4141" x="595.6781" y="564.8383"/><line style="stroke:#1565C0;stroke-width:0.5;" x1="595.6781" x2="775.0922" y1="591.3266" y2="591.3266"/><text fill="#000000" font-family="sans-serif" font-size="14" lengthAdjust="spacing" textLength="159.4141" x="605.6781" y="583.3734">Prepared / Materialized</text></g><g class="entity" data-qualified-name="ResumeFinalize" data-source-line="17" id="ent0002"><rect fill="#E3F2FD" height="50" rx="12.5" ry="12.5" style="stroke:#1565C0;stroke-width:0.5;" width="141.4404" x="849.6681" y="693.3283"/><line style="stroke:#1565C0;stroke-width:0.5;" x1="849.6681" x2="991.1085" y1="719.8166" y2="719.8166"/><text fill="#000000" font-family="sans-serif" font-size="14" lengthAdjust="spacing" textLength="121.4404" x="859.6681" y="711.8634">Resume / Finalize</text></g><g class="entity" data-qualified-name="ActiveOwner" data-source-line="18" id="ent0003"><rect fill="#E3F2FD" height="50" rx="12.5" ry="12.5" style="stroke:#1565C0;stroke-width:0.5;" width="109.4688" x="900.6581" y="46.4583"/><line style="stroke:#1565C0;stroke-width:0.5;" x1="900.6581" x2="1010.1269" y1="72.9466" y2="72.9466"/><text fill="#000000" font-family="sans-serif" font-size="14" lengthAdjust="spacing" textLength="89.4688" x="910.6581" y="64.9934">Active Owner</text></g><g class="entity" data-qualified-name="Quiescing" data-source-line="19" id="ent0004"><rect fill="#E3F2FD" height="50" rx="12.5" ry="12.5" style="stroke:#1565C0;stroke-width:0.5;" width="87.1836" x="641.7981" y="176.4183"/><line style="stroke:#1565C0;stroke-width:0.5;" x1="641.7981" x2="728.9817" y1="202.9066" y2="202.9066"/><text fill="#000000" font-family="sans-serif" font-size="14" lengthAdjust="spacing" textLength="67.1836" x="651.7981" y="194.9534">Quiescing</text></g><g class="entity" data-qualified-name="StoppedCheckpointed" data-source-line="20" id="ent0005"><rect fill="#E3F2FD" height="50" rx="12.5" ry="12.5" style="stroke:#1565C0;stroke-width:0.5;" width="185.334" x="592.7181" y="303.4183"/><line style="stroke:#1565C0;stroke-width:0.5;" x1="592.7181" x2="778.0521" y1="329.9066" y2="329.9066"/><text fill="#000000" font-family="sans-serif" font-size="14" lengthAdjust="spacing" textLength="165.334" x="602.7181" y="321.9534">Stopped / Checkpointed</text></g><g class="entity" data-qualified-name="Replica" data-source-line="21" id="ent0006"><rect fill="#E3F2FD" height="50" rx="12.5" ry="12.5" style="stroke:#1565C0;stroke-width:0.5;" width="68.46" x="651.1581" y="433.3883"/><line style="stroke:#1565C0;stroke-width:0.5;" x1="651.1581" x2="719.6181" y1="459.8766" y2="459.8766"/><text fill="#000000" font-family="sans-serif" font-size="14" lengthAdjust="spacing" textLength="48.46" x="661.1581" y="451.9234">Replica</text></g><g class="entity" data-qualified-name="Fenced" data-source-line="22" id="ent0007"><rect fill="#E3F2FD" height="50" rx="12.5" ry="12.5" style="stroke:#1565C0;stroke-width:0.5;" width="113.666" x="95.5581" y="433.3883"/><line style="stroke:#1565C0;stroke-width:0.5;" x1="95.5581" x2="209.2241" y1="459.8766" y2="459.8766"/><text fill="#000000" font-family="sans-serif" font-size="14" lengthAdjust="spacing" textLength="93.666" x="105.5581" y="451.9234">Fenced (Stale)</text></g><g class="entity" data-qualified-name="Forked" data-source-line="23" id="ent0008"><rect fill="#E3F2FD" height="52.9766" rx="12.5" ry="12.5" style="stroke:#1565C0;stroke-width:0.5;" width="208.3164" x="885.2281" y="563.3483"/><line style="stroke:#1565C0;stroke-width:0.5;" x1="885.2281" x2="1093.5445" y1="589.8366" y2="589.8366"/><text fill="#000000" font-family="sans-serif" font-size="14" lengthAdjust="spacing" textLength="102.0059" x="938.3834" y="581.8834">Forked Session</text><text fill="#000000" font-family="sans-serif" font-size="14" lengthAdjust="spacing" textLength="188.3164" x="890.2281" y="608.3717">New logical session identity</text></g><g class="start_entity" data-qualified-name=".start." data-source-line="25" id="ent0009"><ellipse cx="254.3881" cy="458.3883" fill="#222222" rx="10" ry="10" style="stroke:#222222;stroke-width:1;"/></g><g class="end_entity" data-qualified-name=".end." data-source-line="40" id="ent0022"><ellipse cx="26.3881" cy="589.8383" fill="none" rx="11" ry="11" style="stroke:#222222;stroke-width:1;"/><ellipse cx="26.3881" cy="589.8383" fill="#222222" rx="6" ry="6" style="stroke:#222222;stroke-width:1;"/></g><g class="entity" data-qualified-name="GMN26" data-source-line="47" id="ent0027"><path d="M1045.0281,43.4883 L1045.0281,67.4583 L1010.2381,71.4583 L1045.0281,75.4583 L1045.0281,99.4199 A0,0 0 0 0 1045.0281,99.4199 L1337.7395,99.4199 A0,0 0 0 0 1337.7395,99.4199 L1337.7395,53.4883 L1327.7395,43.4883 L1045.0281,43.4883 A0,0 0 0 0 1045.0281,43.4883" fill="#FFF9C4" style="stroke:#FBC02D;stroke-width:0.5;"/><path d="M1327.7395,43.4883 L1327.7395,53.4883 L1337.7395,53.4883 L1327.7395,43.4883" fill="#FFF9C4" style="stroke:#FBC02D;stroke-width:0.5;"/><text fill="#000000" font-family="sans-serif" font-size="13" lengthAdjust="spacing" textLength="249.2407" x="1051.0281" y="61.0566">One deterministic winning active owner</text><text fill="#000000" font-family="sans-serif" font-size="13" lengthAdjust="spacing" textLength="262.666" x="1051.0281" y="76.3672">for the logical session. Stale/same-epoch</text><text fill="#000000" font-family="sans-serif" font-size="13" lengthAdjust="spacing" textLength="271.7114" x="1051.0281" y="91.6777">losing leases do not permit another owner.</text></g><g class="entity" data-qualified-name="GMN29" data-source-line="53" id="ent0030"><path d="M438.8481,430.4183 L438.8481,486.3499 A0,0 0 0 0 438.8481,486.3499 L615.9306,486.3499 A0,0 0 0 0 615.9306,486.3499 L615.9306,462.3883 L650.8281,458.3883 L615.9306,454.3883 L615.9306,440.4183 L605.9306,430.4183 L438.8481,430.4183 A0,0 0 0 0 438.8481,430.4183" fill="#FFF9C4" style="stroke:#FBC02D;stroke-width:0.5;"/><path d="M605.9306,430.4183 L605.9306,440.4183 L615.9306,440.4183 L605.9306,430.4183" fill="#FFF9C4" style="stroke:#FBC02D;stroke-width:0.5;"/><text fill="#000000" font-family="sans-serif" font-size="13" lengthAdjust="spacing" textLength="156.0825" x="444.8481" y="447.9866">Never allowed to resume</text><text fill="#000000" font-family="sans-serif" font-size="13" lengthAdjust="spacing" textLength="155.1938" x="444.8481" y="463.2972">without explicit handoff,</text><text fill="#000000" font-family="sans-serif" font-size="13" lengthAdjust="spacing" textLength="149.1064" x="444.8481" y="478.6077">force-takeover, or fork.</text></g><!--link *start* to PreparedMaterialized--><g class="link" data-entity-1="ent0009" data-entity-2="ent0001" data-link-type="dependency" data-source-line="25" id="lnk10"><path d="M251.4581,467.9883 C246.8481,483.2683 240.0281,515.2383 256.3881,533.3483 C278.7281,558.0783 471.3398,574.8561 590.4298,583.0261" fill="none" id="*start*-to-PreparedMaterialized" style="stroke:#0D47A1;stroke-width:1;"/><polygon fill="#0D47A1" points="595.4181,583.3683,586.713,578.7617,590.4298,583.0261,586.1654,586.7429,595.4181,583.3683" style="stroke:#0D47A1;stroke-width:1;stroke-linejoin:miter;stroke-miterlimit:10;"/><text fill="#000000" font-family="sans-serif" font-size="13" lengthAdjust="spacing" textLength="92.2632" x="257.3881" y="529.9166">Create Session</text></g><!--link PreparedMaterialized to ResumeFinalize--><g class="link" data-entity-1="ent0001" data-entity-2="ent0002" data-link-type="dependency" data-source-line="26" id="lnk11"><path d="M730.6981,615.2283 C772.3081,637.6283 829.2456,668.2681 870.8156,690.6481" fill="none" id="PreparedMaterialized-to-ResumeFinalize" style="stroke:#0D47A1;stroke-width:1;"/><polygon fill="#0D47A1" points="875.2181,693.0183,869.1897,685.2299,870.8156,690.6481,865.3974,692.274,875.2181,693.0183" style="stroke:#0D47A1;stroke-width:1;stroke-linejoin:miter;stroke-miterlimit:10;"/><text fill="#000000" font-family="sans-serif" font-size="13" lengthAdjust="spacing" textLength="206.6733" x="817.9581" y="659.8966">Resume Request / Acquire Lease</text></g><!--link ResumeFinalize to ActiveOwner--><g class="link" data-entity-1="ent0002" data-entity-2="ent0003" data-link-type="dependency" data-source-line="27" id="lnk12"><path d="M991.5381,709.1683 C1060.6981,696.8083 1155.3881,666.1283 1155.3881,590.8383 C1155.3881,200.4183 1155.3881,200.4183 1155.3881,200.4183 C1155.3881,155.4783 1120.5181,154.7383 1083.3881,129.4183 C1070.6281,120.7183 1043.6395,108.5609 1015.0295,96.5709" fill="none" id="ResumeFinalize-to-ActiveOwner" style="stroke:#0D47A1;stroke-width:1;"/><polygon fill="#0D47A1" points="1010.4181,94.6383,1017.1726,101.806,1015.0295,96.5709,1020.2647,94.4278,1010.4181,94.6383" style="stroke:#0D47A1;stroke-width:1;stroke-linejoin:miter;stroke-miterlimit:10;"/><text fill="#000000" font-family="sans-serif" font-size="13" lengthAdjust="spacing" textLength="48.1851" x="1156.3881" y="396.9866">Finalize</text></g><!--link ActiveOwner to Quiescing--><g class="link" data-entity-1="ent0003" data-entity-2="ent0004" data-link-type="dependency" data-source-line="29" id="lnk13"><path d="M903.2481,96.9383 C881.8981,106.9783 856.9481,118.7383 834.3881,129.4183 C799.0381,146.1583 763.5403,163.0841 733.8803,177.2441" fill="none" id="ActiveOwner-to-Quiescing" style="stroke:#0D47A1;stroke-width:1;"/><polygon fill="#0D47A1" points="729.3681,179.3983,739.2133,179.1305,733.8803,177.2441,735.7667,171.9111,729.3681,179.3983" style="stroke:#0D47A1;stroke-width:1;stroke-linejoin:miter;stroke-miterlimit:10;"/><text fill="#000000" font-family="sans-serif" font-size="13" lengthAdjust="spacing" textLength="211.6626" x="835.3881" y="142.9866">Graceful Takeover / Stop Request</text></g><!--link Quiescing to StoppedCheckpointed--><g class="link" data-entity-1="ent0004" data-entity-2="ent0005" data-link-type="dependency" data-source-line="30" id="lnk14"><path d="M685.3881,226.8183 C685.3881,248.8483 685.3881,276.0783 685.3881,298.0883" fill="none" id="Quiescing-to-StoppedCheckpointed" style="stroke:#0D47A1;stroke-width:1;"/><polygon fill="#0D47A1" points="685.3881,303.0883,689.3881,294.0883,685.3881,298.0883,681.3881,294.0883,685.3881,303.0883" style="stroke:#0D47A1;stroke-width:1;stroke-linejoin:miter;stroke-miterlimit:10;"/><text fill="#000000" font-family="sans-serif" font-size="13" lengthAdjust="spacing" textLength="147.272" x="686.3881" y="269.9866">Provider safe-turn stop</text></g><!--link StoppedCheckpointed to Replica--><g class="link" data-entity-1="ent0005" data-entity-2="ent0006" data-link-type="dependency" data-source-line="31" id="lnk15"><path d="M685.3881,353.7883 C685.3881,376.5583 685.3881,405.3683 685.3881,428.1083" fill="none" id="StoppedCheckpointed-to-Replica" style="stroke:#0D47A1;stroke-width:1;"/><polygon fill="#0D47A1" points="685.3881,433.1083,689.3881,424.1083,685.3881,428.1083,681.3881,424.1083,685.3881,433.1083" style="stroke:#0D47A1;stroke-width:1;stroke-linejoin:miter;stroke-miterlimit:10;"/><text fill="#000000" font-family="sans-serif" font-size="13" lengthAdjust="spacing" textLength="219.4385" x="686.3881" y="396.9866">Source Demoted (After Dest Lease)</text></g><!--link Replica to PreparedMaterialized--><g class="link" data-entity-1="ent0006" data-entity-2="ent0001" data-link-type="dependency" data-source-line="33" id="lnk16"><path d="M650.8781,479.4783 C645.1781,482.1483 639.2281,484.5683 633.3881,486.3483 C519.3881,521.0883 292.7481,442.0783 369.3881,533.3483 C397.8181,567.2083 507.5177,580.1093 590.5477,585.2493" fill="none" id="Replica-to-PreparedMaterialized" style="stroke:#0D47A1;stroke-width:1;"/><polygon fill="#0D47A1" points="595.5381,585.5583,586.8024,581.0098,590.5477,585.2493,586.3082,588.9946,595.5381,585.5583" style="stroke:#0D47A1;stroke-width:1;stroke-linejoin:miter;stroke-miterlimit:10;"/><text fill="#000000" font-family="sans-serif" font-size="13" lengthAdjust="spacing" textLength="271.9399" x="370.3881" y="529.9166">Graceful Takeover (Prepare Materialization)</text></g><!--link Replica to PreparedMaterialized--><g class="link" data-entity-1="ent0006" data-entity-2="ent0001" data-link-type="dependency" data-source-line="34" id="lnk17"><path d="M683.5781,483.6983 C682.7081,498.1283 681.9381,516.7783 682.3881,533.3483 C682.6681,543.5783 682.9396,549.8566 683.4996,559.5466" fill="none" id="Replica-to-PreparedMaterialized-1" style="stroke:#0D47A1;stroke-width:1;"/><polygon fill="#0D47A1" points="683.7881,564.5383,687.2622,555.3225,683.4996,559.5466,679.2755,555.7841,683.7881,564.5383" style="stroke:#0D47A1;stroke-width:1;stroke-linejoin:miter;stroke-miterlimit:10;"/><text fill="#000000" font-family="sans-serif" font-size="13" lengthAdjust="spacing" textLength="253.7158" x="683.3881" y="529.9166">Force Takeover (Prepare Materialization)</text></g><!--link StoppedCheckpointed to PreparedMaterialized--><g class="link" data-entity-1="ent0005" data-entity-2="ent0001" data-link-type="dependency" data-source-line="35" id="lnk18"><path d="M778.3781,333.4783 C822.4481,339.6583 873.4081,353.4483 910.3881,383.4183 C949.7481,415.3183 928.3181,446.3283 959.3881,486.3483 C975.5281,507.1383 1012.2781,513.1783 995.3881,533.3483 C988.2381,541.8983 869.4613,561.3069 780.5113,574.8269" fill="none" id="StoppedCheckpointed-to-PreparedMaterialized" style="stroke:#0D47A1;stroke-width:1;"/><polygon fill="#0D47A1" points="775.5681,575.5783,785.067,578.1804,780.5113,574.8269,783.8648,570.2713,775.5681,575.5783" style="stroke:#0D47A1;stroke-width:1;stroke-linejoin:miter;stroke-miterlimit:10;"/><text fill="#000000" font-family="sans-serif" font-size="13" lengthAdjust="spacing" textLength="86.1631" x="960.3881" y="463.4566">Local Resume</text></g><!--link ActiveOwner to Fenced--><g class="link" data-entity-1="ent0003" data-entity-2="ent0007" data-link-type="dependency" data-source-line="37" id="lnk19"><path d="M900.3881,79.3183 C788.2881,95.2983 528.3781,142.6383 343.3881,256.4183 C265.8981,304.0783 201.6064,386.8269 171.7564,429.0069" fill="none" id="ActiveOwner-to-Fenced" style="stroke:#0D47A1;stroke-width:1;"/><polygon fill="#0D47A1" points="168.8681,433.0883,177.3322,428.0525,171.7564,429.0069,170.802,423.4312,168.8681,433.0883" style="stroke:#0D47A1;stroke-width:1;stroke-linejoin:miter;stroke-miterlimit:10;"/><text fill="#000000" font-family="sans-serif" font-size="13" lengthAdjust="spacing" textLength="186.2529" x="344.3881" y="269.9866">Lease stolen (Force Takeover)</text></g><!--link Quiescing to Fenced--><g class="link" data-entity-1="ent0004" data-entity-2="ent0007" data-link-type="dependency" data-source-line="38" id="lnk20"><path d="M641.3181,223.4983 C543.2981,270.3883 312.1986,380.9406 207.9686,430.8006" fill="none" id="Quiescing-to-Fenced" style="stroke:#0D47A1;stroke-width:1;"/><polygon fill="#0D47A1" points="203.4581,432.9583,213.3031,432.6829,207.9686,430.8006,209.8509,425.4661,203.4581,432.9583" style="stroke:#0D47A1;stroke-width:1;stroke-linejoin:miter;stroke-miterlimit:10;"/><text fill="#000000" font-family="sans-serif" font-size="13" lengthAdjust="spacing" textLength="77.8794" x="472.8681" y="333.4866">Lease stolen</text></g><!--link StoppedCheckpointed to Fenced--><g class="link" data-entity-1="ent0005" data-entity-2="ent0007" data-link-type="dependency" data-source-line="39" id="lnk21"><path d="M622.6481,353.8983 C580.4781,369.4383 523.3281,388.7483 471.3881,400.4183 C364.3581,424.4783 333.0581,404.8083 226.3881,430.4183 C220.8081,431.7583 219.8308,431.8979 214.1308,433.6779" fill="none" id="StoppedCheckpointed-to-Fenced" style="stroke:#0D47A1;stroke-width:1;"/><polygon fill="#0D47A1" points="209.3581,435.1683,219.1413,436.3037,214.1308,433.6779,216.7566,428.6674,209.3581,435.1683" style="stroke:#0D47A1;stroke-width:1;stroke-linejoin:miter;stroke-miterlimit:10;"/><text fill="#000000" font-family="sans-serif" font-size="13" lengthAdjust="spacing" textLength="77.8794" x="532.1881" y="396.9866">Lease stolen</text></g><!--link Fenced to *end*--><g class="link" data-entity-1="ent0007" data-entity-2="ent0022" data-link-type="dependency" data-source-line="40" id="lnk23"><path d="M95.0981,469.7983 C68.5281,477.7983 39.3581,491.8383 23.3881,516.3483 C10.8781,535.5583 16.0822,559.3565 21.0622,574.2465" fill="none" id="Fenced-to-*end*" style="stroke:#0D47A1;stroke-width:1;"/><polygon fill="#0D47A1" points="22.6481,578.9883,23.5869,569.1843,21.0622,574.2465,16,571.7217,22.6481,578.9883" style="stroke:#0D47A1;stroke-width:1;stroke-linejoin:miter;stroke-miterlimit:10;"/><text fill="#000000" font-family="sans-serif" font-size="13" lengthAdjust="spacing" textLength="170.6821" x="24.3881" y="529.9166">Preserves divergent history</text></g><!--link ActiveOwner to Forked--><g class="link" data-entity-1="ent0003" data-entity-2="ent0008" data-link-type="dependency" data-source-line="42" id="lnk24"><path d="M1010.5081,95.9783 C1025.5181,104.6183 1040.5881,115.7283 1051.3881,129.4183 C1071.8481,155.3583 1073.3881,167.3883 1073.3881,200.4183 C1073.3881,200.4183 1073.3881,200.4183 1073.3881,459.3883 C1073.3881,500.6483 1046.5324,535.5815 1022.3124,559.6815" fill="none" id="ActiveOwner-to-Forked" style="stroke:#0D47A1;stroke-width:1;"/><polygon fill="#0D47A1" points="1018.7681,563.2083,1027.9692,559.6956,1022.3124,559.6815,1022.3265,554.0247,1018.7681,563.2083" style="stroke:#0D47A1;stroke-width:1;stroke-linejoin:miter;stroke-miterlimit:10;"/><text fill="#000000" font-family="sans-serif" font-size="13" lengthAdjust="spacing" textLength="27.8726" x="1074.3881" y="333.4866">Fork</text></g><!--link Replica to Forked--><g class="link" data-entity-1="ent0006" data-entity-2="ent0008" data-link-type="dependency" data-source-line="43" id="lnk25"><path d="M720.0781,459.1383 C772.5281,460.4083 873.1081,469.3983 941.3881,516.3483 C958.0581,527.8083 968.1706,542.6769 976.1706,558.4869" fill="none" id="Replica-to-Forked" style="stroke:#0D47A1;stroke-width:1;"/><polygon fill="#0D47A1" points="978.4281,562.9483,977.9337,553.1118,976.1706,558.4869,970.7955,556.7238,978.4281,562.9483" style="stroke:#0D47A1;stroke-width:1;stroke-linejoin:miter;stroke-miterlimit:10;"/><text fill="#000000" font-family="sans-serif" font-size="13" lengthAdjust="spacing" textLength="27.8726" x="959.6081" y="529.9166">Fork</text></g><?plantuml-src ZLHBRzim3BxhLn3T9HcQljPkM0y3qcJUfLkxPhTX1y6cOy6Av4foiWVstqSzd3gDCzGdY_n8VlmeqTP2DTpm5Tpml5uQtQfYfgKsy2eB7xDRX7NS8VnXGDyU-kERx2ARHvys1PfaFxzwUpKx2_QfCNgJp6VpotVJys3Ej7ATDNpiRw-eqeTh4httiylzcjdDxEnYVZ0vSy99X5kz53cNi41hXLPmjr5eR2KQM8H6F_Ey4WePYtqVtHiaIbZ0ARaS6i6b-8t54N0BdQ_lwE8UqBOhfAXCgE094T7QcJhiD7TYZP5AW4L3E7UOhwr0cmkr383jgNCld6wQm79MOLutMYYNM2PNt_v4if6aHg8M_ZjNXYgdV2DIHU8u8A9f2z2c9a3ICGA2YR7lht_0PF9XK1-uXfb1do55ia6K3zyLYmAJfW_usA9rrEiqVso5eQ4YjyYUuNsAdf0KlzMTzUqUjzMJK9yCpx5i9NpZDUer8Kw3XbrTzWJseGFoKf9xezU2xYPONkB4jKRHGz8D6qB7NeFw5BdGhSaHvhZItZcQbYGB7QdXqEQOiGxy7uttcnWbPEyQSqVwZr-IZYPBd5wGwr1_1_BUQlyMu-3sfvBku7Lit0ieKS5ebypusJm6Wmxo6aOdgmVuk-p7YHRD6YqKnD0iKJce1A7Dhm7QyMK4rUeTTNSzszCNt81CUycclKINHz76elHX5ngnh1peScSr0DmfX099qfLGH4Vai15AUIbut2aw0KlQXQx2vsLE8BplKyjNEC56vnLXfRO-W_IAKCFQRsDeV0q7dFuhwZFaFM6eYh2h4qk9PI3PxHAWrlnzuLBg3RNgD9WuQo2YhjAj0_pfiPIwughGPNaSsURqQjA4Zu78awdkrVi7?></g></svg>