<svg xmlns="http://www.w3.org/2000/svg" xmlns:xlink="http://www.w3.org/1999/xlink" contentStyleType="text/css" data-diagram-type="SEQUENCE" height="1396px" preserveAspectRatio="none" style="width:982px;height:1396px;background:#FFFFFF;" version="1.1" viewBox="0 0 982 1396" width="982px" zoomAndPan="magnify"><?plantuml 1.2026.6?><defs/><g><g class="title" data-source-line="19"><text fill="#000000" font-family="sans-serif" font-size="14" font-weight="700" lengthAdjust="spacing" textLength="278.8857" x="348.2224" y="28.5352">Graceful and Force Takeover Sequence</text></g><g class="participant-lifeline" data-entity-uid="part1" data-qualified-name="Dest" data-source-line="21" id="part1-lifeline"><g><title>Destination Host</title><rect fill="#000000" fill-opacity="0.00000" height="1190.1797" width="8" x="231.6938" y="121.4648"/><line style="stroke:#1565C0;stroke-width:0.5;stroke-dasharray:5,5;" x1="235" x2="235" y1="121.4648" y2="1311.6445"/></g></g><g class="participant-lifeline" data-entity-uid="part2" data-qualified-name="Mesh" data-source-line="22" id="part2-lifeline"><g><title>Mesh Network</title><rect fill="#000000" fill-opacity="0.00000" height="1190.1797" width="8" x="469.2266" y="121.4648"/><line style="stroke:#1565C0;stroke-width:0.5;stroke-dasharray:5,5;" x1="473.0371" x2="473.0371" y1="121.4648" y2="1311.6445"/></g></g><g class="participant-lifeline" data-entity-uid="part3" data-qualified-name="Src" data-source-line="23" id="part3-lifeline"><g><title>Source Host</title><rect fill="#000000" fill-opacity="0.00000" height="1190.1797" width="8" x="584.0249" y="121.4648"/><line style="stroke:#1565C0;stroke-width:0.5;stroke-dasharray:5,5;" x1="587.416" x2="587.416" y1="121.4648" y2="1311.6445"/></g></g><g class="participant-lifeline" data-entity-uid="part4" data-qualified-name="Store" data-source-line="24" id="part4-lifeline"><g><title>Immutable</title><rect fill="#000000" fill-opacity="0.00000" height="1190.1797" width="8" x="909.6465" y="121.4648"/><line style="stroke:#1565C0;stroke-width:0.5;stroke-dasharray:5,5;" x1="912.9624" x2="912.9624" y1="121.4648" y2="1311.6445"/></g></g><g class="participant participant-head" data-entity-uid="part1" data-qualified-name="Dest" data-source-line="21" id="part1-head"><rect fill="#E3F2FD" height="46.9766" rx="2.5" ry="2.5" style="stroke:#1565C0;stroke-width:0.5;" width="127.3877" x="172" y="73.4883"/><text fill="#000000" font-family="sans-serif" font-size="14" lengthAdjust="spacing" textLength="113.3877" x="179" y="94.0234">Destination Host</text><text fill="#000000" font-family="sans-serif" font-size="14" lengthAdjust="spacing" textLength="86.3447" x="192.5215" y="110.5117">(New Owner)</text></g><g class="participant participant-tail" data-entity-uid="part1" data-qualified-name="Dest" data-source-line="21" id="part1-tail"><rect fill="#E3F2FD" height="46.9766" rx="2.5" ry="2.5" style="stroke:#1565C0;stroke-width:0.5;" width="127.3877" x="172" y="1310.6445"/><text fill="#000000" font-family="sans-serif" font-size="14" lengthAdjust="spacing" textLength="113.3877" x="179" y="1331.1797">Destination Host</text><text fill="#000000" font-family="sans-serif" font-size="14" lengthAdjust="spacing" textLength="86.3447" x="192.5215" y="1347.668">(New Owner)</text></g><g class="participant participant-head" data-entity-uid="part2" data-qualified-name="Mesh" data-source-line="22" id="part2-head"><rect fill="#E3F2FD" height="46.9766" rx="2.5" ry="2.5" style="stroke:#1565C0;stroke-width:0.5;" width="114.3789" x="416.0371" y="73.4883"/><text fill="#000000" font-family="sans-serif" font-size="14" lengthAdjust="spacing" textLength="96.79" x="424.8315" y="94.0234">Mesh Network</text><text fill="#000000" font-family="sans-serif" font-size="14" lengthAdjust="spacing" textLength="100.3789" x="423.0371" y="110.5117">(Tailscale/SSH)</text></g><g class="participant participant-tail" data-entity-uid="part2" data-qualified-name="Mesh" data-source-line="22" id="part2-tail"><rect fill="#E3F2FD" height="46.9766" rx="2.5" ry="2.5" style="stroke:#1565C0;stroke-width:0.5;" width="114.3789" x="416.0371" y="1310.6445"/><text fill="#000000" font-family="sans-serif" font-size="14" lengthAdjust="spacing" textLength="96.79" x="424.8315" y="1331.1797">Mesh Network</text><text fill="#000000" font-family="sans-serif" font-size="14" lengthAdjust="spacing" textLength="100.3789" x="423.0371" y="1347.668">(Tailscale/SSH)</text></g><g class="participant participant-head" data-entity-uid="part3" data-qualified-name="Src" data-source-line="23" id="part3-head"><rect fill="#E3F2FD" height="46.9766" rx="2.5" ry="2.5" style="stroke:#1565C0;stroke-width:0.5;" width="95.2178" x="540.416" y="73.4883"/><text fill="#000000" font-family="sans-serif" font-size="14" lengthAdjust="spacing" textLength="81.2178" x="547.416" y="94.0234">Source Host</text><text fill="#000000" font-family="sans-serif" font-size="14" lengthAdjust="spacing" textLength="81.1494" x="547.4502" y="110.5117">(Old Owner)</text></g><g class="participant participant-tail" data-entity-uid="part3" data-qualified-name="Src" data-source-line="23" id="part3-tail"><rect fill="#E3F2FD" height="46.9766" rx="2.5" ry="2.5" style="stroke:#1565C0;stroke-width:0.5;" width="95.2178" x="540.416" y="1310.6445"/><text fill="#000000" font-family="sans-serif" font-size="14" lengthAdjust="spacing" textLength="81.2178" x="547.416" y="1331.1797">Source Host</text><text fill="#000000" font-family="sans-serif" font-size="14" lengthAdjust="spacing" textLength="81.1494" x="547.4502" y="1347.668">(Old Owner)</text></g><g class="participant participant-head" data-entity-uid="part4" data-qualified-name="Store" data-source-line="24" id="part4-head"><text fill="#000000" font-family="sans-serif" font-size="14" lengthAdjust="spacing" textLength="72.4883" x="874.4023" y="102.0234">Immutable</text><text fill="#000000" font-family="sans-serif" font-size="14" lengthAdjust="spacing" textLength="109.3682" x="855.9624" y="118.5117">Records &amp; Blobs</text><path d="M895.6465,52.4883 C895.6465,42.4883 913.6465,42.4883 913.6465,42.4883 C913.6465,42.4883 931.6465,42.4883 931.6465,52.4883 L931.6465,78.4883 C931.6465,88.4883 913.6465,88.4883 913.6465,88.4883 C913.6465,88.4883 895.6465,88.4883 895.6465,78.4883 L895.6465,52.4883" fill="#E2E2F0" style="stroke:#181818;stroke-width:0.5;"/><path d="M895.6465,52.4883 C895.6465,62.4883 913.6465,62.4883 913.6465,62.4883 C913.6465,62.4883 931.6465,62.4883 931.6465,52.4883" fill="none" style="stroke:#181818;stroke-width:0.5;"/></g><g class="participant participant-tail" data-entity-uid="part4" data-qualified-name="Store" data-source-line="24" id="part4-tail"><text fill="#000000" font-family="sans-serif" font-size="14" lengthAdjust="spacing" textLength="72.4883" x="874.4023" y="1324.1797">Immutable</text><text fill="#000000" font-family="sans-serif" font-size="14" lengthAdjust="spacing" textLength="109.3682" x="855.9624" y="1340.668">Records &amp; Blobs</text><path d="M895.6465,1353.6211 C895.6465,1343.6211 913.6465,1343.6211 913.6465,1343.6211 C913.6465,1343.6211 931.6465,1343.6211 931.6465,1353.6211 L931.6465,1379.6211 C931.6465,1389.6211 913.6465,1389.6211 913.6465,1389.6211 C913.6465,1389.6211 895.6465,1389.6211 895.6465,1379.6211 L895.6465,1353.6211" fill="#E2E2F0" style="stroke:#181818;stroke-width:0.5;"/><path d="M895.6465,1353.6211 C895.6465,1363.6211 913.6465,1363.6211 913.6465,1363.6211 C913.6465,1363.6211 931.6465,1363.6211 931.6465,1353.6211" fill="none" style="stroke:#181818;stroke-width:0.5;"/></g><rect fill="#EEEEEE" height="3" style="stroke:#EEEEEE;stroke-width:1;" width="976.3306" x="0" y="152.1201"/><line style="stroke:#000000;stroke-width:1;" x1="0" x2="976.3306" y1="152.1201" y2="152.1201"/><line style="stroke:#000000;stroke-width:1;" x1="0" x2="976.3306" y1="155.1201" y2="155.1201"/><rect fill="#EEEEEE" height="23.3105" style="stroke:#000000;stroke-width:2;" width="140.5024" x="417.9141" y="141.4648"/><text fill="#000000" font-family="sans-serif" font-size="13" font-weight="700" lengthAdjust="spacing" textLength="122.2178" x="423.9141" y="158.0332">Graceful Takeover</text><g class="message" data-entity-1="part1" data-entity-2="part3" data-source-line="27" id="msg1"><polygon fill="#0D47A1" points="576.0249,192.0859,586.0249,196.0859,576.0249,200.0859,580.0249,196.0859" style="stroke:#0D47A1;stroke-width:1;stroke-linejoin:miter;stroke-miterlimit:10;"/><line style="stroke:#0D47A1;stroke-width:1;" x1="235.6938" x2="582.0249" y1="196.0859" y2="196.0859"/><text fill="#000000" font-family="sans-serif" font-size="13" lengthAdjust="spacing" textLength="163.9409" x="242.6938" y="191.3438">Request graceful takeover</text></g><g class="message" data-entity-1="part3" data-entity-2="part3" data-source-line="28" id="msg2"><line style="stroke:#0D47A1;stroke-width:1;" x1="588.0249" x2="630.0249" y1="225.3965" y2="225.3965"/><line style="stroke:#0D47A1;stroke-width:1;" x1="630.0249" x2="630.0249" y1="225.3965" y2="238.3965"/><line style="stroke:#0D47A1;stroke-width:1;" x1="589.0249" x2="630.0249" y1="238.3965" y2="238.3965"/><polygon fill="#0D47A1" points="599.0249,234.3965,589.0249,238.3965,599.0249,242.3965,595.0249,238.3965" style="stroke:#0D47A1;stroke-width:1;stroke-linejoin:miter;stroke-miterlimit:10;"/><text fill="#000000" font-family="sans-serif" font-size="13" lengthAdjust="spacing" textLength="233.6191" x="595.0249" y="220.6543">Wait for provider safe-turn boundary</text></g><g class="message" data-entity-1="part3" data-entity-2="part3" data-source-line="29" id="msg3"><line style="stroke:#0D47A1;stroke-width:1;" x1="588.0249" x2="630.0249" y1="267.707" y2="267.707"/><line style="stroke:#0D47A1;stroke-width:1;" x1="630.0249" x2="630.0249" y1="267.707" y2="280.707"/><line style="stroke:#0D47A1;stroke-width:1;" x1="589.0249" x2="630.0249" y1="280.707" y2="280.707"/><polygon fill="#0D47A1" points="599.0249,276.707,589.0249,280.707,599.0249,284.707,595.0249,280.707" style="stroke:#0D47A1;stroke-width:1;stroke-linejoin:miter;stroke-miterlimit:10;"/><text fill="#000000" font-family="sans-serif" font-size="13" lengthAdjust="spacing" textLength="86.7471" x="595.0249" y="262.9648">Quiesce input</text></g><g class="message" data-entity-1="part3" data-entity-2="part4" data-source-line="30" id="msg4"><polygon fill="#0D47A1" points="901.6465,306.0176,911.6465,310.0176,901.6465,314.0176,905.6465,310.0176" style="stroke:#0D47A1;stroke-width:1;stroke-linejoin:miter;stroke-miterlimit:10;"/><line style="stroke:#0D47A1;stroke-width:1;" x1="588.0249" x2="907.6465" y1="310.0176" y2="310.0176"/><text fill="#000000" font-family="sans-serif" font-size="13" lengthAdjust="spacing" textLength="107.4214" x="595.0249" y="305.2754">Fresh checkpoint</text></g><g class="message" data-entity-1="part3" data-entity-2="part4" data-source-line="31" id="msg5"><polygon fill="#0D47A1" points="901.6465,335.3281,911.6465,339.3281,901.6465,343.3281,905.6465,339.3281" style="stroke:#0D47A1;stroke-width:1;stroke-linejoin:miter;stroke-miterlimit:10;"/><line style="stroke:#0D47A1;stroke-width:1;" x1="588.0249" x2="907.6465" y1="339.3281" y2="339.3281"/><text fill="#000000" font-family="sans-serif" font-size="13" lengthAdjust="spacing" textLength="301.6216" x="595.0249" y="334.5859">Final bulk workspace/provider/task-board sync</text></g><g class="message" data-entity-1="part1" data-entity-2="part4" data-source-line="32" id="msg6"><polygon fill="#0D47A1" points="901.6465,364.6387,911.6465,368.6387,901.6465,372.6387,905.6465,368.6387" style="stroke:#0D47A1;stroke-width:1;stroke-linejoin:miter;stroke-miterlimit:10;"/><line style="stroke:#0D47A1;stroke-width:1;" x1="235.6938" x2="907.6465" y1="368.6387" y2="368.6387"/><text fill="#000000" font-family="sans-serif" font-size="13" lengthAdjust="spacing" textLength="189.0269" x="242.6938" y="363.8965">Destination stage &amp; validation</text></g><g class="message" data-entity-1="part3" data-entity-2="part3" data-source-line="33" id="msg7"><line style="stroke:#0D47A1;stroke-width:1;" x1="588.0249" x2="630.0249" y1="397.9492" y2="397.9492"/><line style="stroke:#0D47A1;stroke-width:1;" x1="630.0249" x2="630.0249" y1="397.9492" y2="410.9492"/><line style="stroke:#0D47A1;stroke-width:1;" x1="589.0249" x2="630.0249" y1="410.9492" y2="410.9492"/><polygon fill="#0D47A1" points="599.0249,406.9492,589.0249,410.9492,599.0249,414.9492,595.0249,410.9492" style="stroke:#0D47A1;stroke-width:1;stroke-linejoin:miter;stroke-miterlimit:10;"/><text fill="#000000" font-family="sans-serif" font-size="13" lengthAdjust="spacing" textLength="161.5034" x="595.0249" y="393.207">Gracefully stop old owner</text></g><g class="message" data-entity-1="part3" data-entity-2="part4" data-source-line="34" id="msg8"><polygon fill="#0D47A1" points="901.6465,436.2598,911.6465,440.2598,901.6465,444.2598,905.6465,440.2598" style="stroke:#0D47A1;stroke-width:1;stroke-linejoin:miter;stroke-miterlimit:10;"/><line style="stroke:#0D47A1;stroke-width:1;" x1="588.0249" x2="907.6465" y1="440.2598" y2="440.2598"/><text fill="#000000" font-family="sans-serif" font-size="13" lengthAdjust="spacing" textLength="183.3457" x="595.0249" y="435.5176">Closure-delta sync (optional)</text></g><g class="message" data-entity-1="part1" data-entity-2="part4" data-source-line="35" id="msg9"><polygon fill="#0D47A1" points="901.6465,465.5703,911.6465,469.5703,901.6465,473.5703,905.6465,469.5703" style="stroke:#0D47A1;stroke-width:1;stroke-linejoin:miter;stroke-miterlimit:10;"/><line style="stroke:#0D47A1;stroke-width:1;" x1="235.6938" x2="907.6465" y1="469.5703" y2="469.5703"/><text fill="#000000" font-family="sans-serif" font-size="13" lengthAdjust="spacing" textLength="185.25" x="242.6938" y="464.8281">materialize.prepare / commit</text></g><g class="message" data-entity-1="part1" data-entity-2="part4" data-source-line="36" id="msg10"><polygon fill="#0D47A1" points="901.6465,494.8809,911.6465,498.8809,901.6465,502.8809,905.6465,498.8809" style="stroke:#0D47A1;stroke-width:1;stroke-linejoin:miter;stroke-miterlimit:10;"/><line style="stroke:#0D47A1;stroke-width:1;" x1="235.6938" x2="907.6465" y1="498.8809" y2="498.8809"/><text fill="#000000" font-family="sans-serif" font-size="13" lengthAdjust="spacing" textLength="377.2729" x="242.6938" y="494.1387">Advance lease epoch (acquire exactly one destination lease)</text></g><g class="message" data-entity-1="part1" data-entity-2="part4" data-source-line="37" id="msg11"><polygon fill="#0D47A1" points="901.6465,524.1914,911.6465,528.1914,901.6465,532.1914,905.6465,528.1914" style="stroke:#0D47A1;stroke-width:1;stroke-linejoin:miter;stroke-miterlimit:10;"/><line style="stroke:#0D47A1;stroke-width:1;" x1="235.6938" x2="907.6465" y1="528.1914" y2="528.1914"/><text fill="#000000" font-family="sans-serif" font-size="13" lengthAdjust="spacing" textLength="164.728" x="242.6938" y="523.4492">Winning-lease verification</text></g><g class="message" data-entity-1="part1" data-entity-2="part1" data-source-line="38" id="msg12"><line style="stroke:#0D47A1;stroke-width:1;" x1="235.6938" x2="277.6938" y1="557.502" y2="557.502"/><line style="stroke:#0D47A1;stroke-width:1;" x1="277.6938" x2="277.6938" y1="557.502" y2="570.502"/><line style="stroke:#0D47A1;stroke-width:1;" x1="236.6938" x2="277.6938" y1="570.502" y2="570.502"/><polygon fill="#0D47A1" points="246.6938,566.502,236.6938,570.502,246.6938,574.502,242.6938,570.502" style="stroke:#0D47A1;stroke-width:1;stroke-linejoin:miter;stroke-miterlimit:10;"/><text fill="#000000" font-family="sans-serif" font-size="13" lengthAdjust="spacing" textLength="110.5762" x="242.6938" y="552.7598">Resume / finalize</text></g><g class="message" data-entity-1="part1" data-entity-2="part4" data-source-line="39" id="msg13"><polygon fill="#0D47A1" points="901.6465,595.8125,911.6465,599.8125,901.6465,603.8125,905.6465,599.8125" style="stroke:#0D47A1;stroke-width:1;stroke-linejoin:miter;stroke-miterlimit:10;"/><line style="stroke:#0D47A1;stroke-width:1;" x1="235.6938" x2="907.6465" y1="599.8125" y2="599.8125"/><text fill="#000000" font-family="sans-serif" font-size="13" lengthAdjust="spacing" textLength="228.8584" x="242.6938" y="595.0703">Source replica and event publication</text></g><path d="M593,612.8125 L593,637.8125 L785,637.8125 L785,622.8125 L775,612.8125 L593,612.8125" fill="#FFF9C4" style="stroke:#FBC02D;stroke-width:0.5;"/><path d="M775,612.8125 L775,622.8125 L785,622.8125 L775,612.8125" fill="#FFF9C4" style="stroke:#FBC02D;stroke-width:0.5;"/><text fill="#000000" font-family="sans-serif" font-size="13" lengthAdjust="spacing" textLength="171.3867" x="599" y="630.3809">Old host becomes a replica</text><rect fill="#EEEEEE" height="3" style="stroke:#EEEEEE;stroke-width:1;" width="976.3306" x="0" y="663.7783"/><line style="stroke:#000000;stroke-width:1;" x1="0" x2="976.3306" y1="663.7783" y2="663.7783"/><line style="stroke:#000000;stroke-width:1;" x1="0" x2="976.3306" y1="666.7783" y2="666.7783"/><rect fill="#EEEEEE" height="23.3105" style="stroke:#000000;stroke-width:2;" width="195.3271" x="390.5017" y="653.123"/><text fill="#000000" font-family="sans-serif" font-size="13" font-weight="700" lengthAdjust="spacing" textLength="177.0425" x="396.5017" y="669.6914">Force Takeover (Recovery)</text><g class="message" data-entity-1="part1" data-entity-2="part4" data-source-line="43" id="msg14"><polygon fill="#0D47A1" points="901.6465,703.7441,911.6465,707.7441,901.6465,711.7441,905.6465,707.7441" style="stroke:#0D47A1;stroke-width:1;stroke-linejoin:miter;stroke-miterlimit:10;"/><line style="stroke:#0D47A1;stroke-width:1;" x1="235.6938" x2="907.6465" y1="707.7441" y2="707.7441"/><text fill="#000000" font-family="sans-serif" font-size="13" lengthAdjust="spacing" textLength="146.1167" x="242.6938" y="703.002">Inert stage &amp; validation</text></g><g class="message" data-entity-1="part1" data-entity-2="part4" data-source-line="44" id="msg15"><polygon fill="#0D47A1" points="901.6465,733.0547,911.6465,737.0547,901.6465,741.0547,905.6465,737.0547" style="stroke:#0D47A1;stroke-width:1;stroke-linejoin:miter;stroke-miterlimit:10;"/><line style="stroke:#0D47A1;stroke-width:1;" x1="235.6938" x2="907.6465" y1="737.0547" y2="737.0547"/><text fill="#000000" font-family="sans-serif" font-size="13" lengthAdjust="spacing" textLength="208.9014" x="242.6938" y="732.3125">Capability / auth / profile checks</text></g><g class="message" data-entity-1="part1" data-entity-2="part1" data-source-line="45" id="msg16"><line style="stroke:#0D47A1;stroke-width:1;" x1="235.6938" x2="277.6938" y1="766.3652" y2="766.3652"/><line style="stroke:#0D47A1;stroke-width:1;" x1="277.6938" x2="277.6938" y1="766.3652" y2="779.3652"/><line style="stroke:#0D47A1;stroke-width:1;" x1="236.6938" x2="277.6938" y1="779.3652" y2="779.3652"/><polygon fill="#0D47A1" points="246.6938,775.3652,236.6938,779.3652,246.6938,783.3652,242.6938,779.3652" style="stroke:#0D47A1;stroke-width:1;stroke-linejoin:miter;stroke-miterlimit:10;"/><text fill="#000000" font-family="sans-serif" font-size="13" lengthAdjust="spacing" textLength="201.9951" x="242.6938" y="761.623">Explicit split-brain confirmation</text></g><g class="message" data-entity-1="part1" data-entity-2="part4" data-source-line="46" id="msg17"><polygon fill="#0D47A1" points="901.6465,804.6758,911.6465,808.6758,901.6465,812.6758,905.6465,808.6758" style="stroke:#0D47A1;stroke-width:1;stroke-linejoin:miter;stroke-miterlimit:10;"/><line style="stroke:#0D47A1;stroke-width:1;" x1="235.6938" x2="907.6465" y1="808.6758" y2="808.6758"/><text fill="#000000" font-family="sans-serif" font-size="13" lengthAdjust="spacing" textLength="226.5161" x="242.6938" y="803.9336">Advance lease epoch (acquire force)</text></g><g class="message" data-entity-1="part1" data-entity-2="part4" data-source-line="47" id="msg18"><polygon fill="#0D47A1" points="901.6465,833.9863,911.6465,837.9863,901.6465,841.9863,905.6465,837.9863" style="stroke:#0D47A1;stroke-width:1;stroke-linejoin:miter;stroke-miterlimit:10;"/><line style="stroke:#0D47A1;stroke-width:1;" x1="235.6938" x2="907.6465" y1="837.9863" y2="837.9863"/><text fill="#000000" font-family="sans-serif" font-size="13" lengthAdjust="spacing" textLength="165.8452" x="242.6938" y="833.2441">Mark previous owner stale</text></g><g class="message" data-entity-1="part1" data-entity-2="part4" data-source-line="48" id="msg19"><polygon fill="#0D47A1" points="901.6465,863.2969,911.6465,867.2969,901.6465,871.2969,905.6465,867.2969" style="stroke:#0D47A1;stroke-width:1;stroke-linejoin:miter;stroke-miterlimit:10;"/><line style="stroke:#0D47A1;stroke-width:1;" x1="235.6938" x2="907.6465" y1="867.2969" y2="867.2969"/><text fill="#000000" font-family="sans-serif" font-size="13" lengthAdjust="spacing" textLength="185.25" x="242.6938" y="862.5547">materialize.prepare / commit</text></g><path d="M45,880.2969 L45,935.2969 L230,935.2969 L230,890.2969 L220,880.2969 L45,880.2969" fill="#FFF9C4" style="stroke:#FBC02D;stroke-width:0.5;"/><path d="M220,880.2969 L220,890.2969 L230,890.2969 L220,880.2969" fill="#FFF9C4" style="stroke:#FBC02D;stroke-width:0.5;"/><text fill="#000000" font-family="sans-serif" font-size="13" lengthAdjust="spacing" textLength="134.5449" x="51" y="897.8652">Warn split-brain risk.</text><text fill="#000000" font-family="sans-serif" font-size="13" lengthAdjust="spacing" textLength="164.0552" x="51" y="913.1758">Preserve divergent history</text><text fill="#000000" font-family="sans-serif" font-size="13" lengthAdjust="spacing" textLength="111.3696" x="51" y="928.4863">for reconciliation.</text><g class="message" data-entity-1="part1" data-entity-2="part1" data-source-line="50" id="msg20"><line style="stroke:#0D47A1;stroke-width:1;" x1="235.6938" x2="277.6938" y1="962.5391" y2="962.5391"/><line style="stroke:#0D47A1;stroke-width:1;" x1="277.6938" x2="277.6938" y1="962.5391" y2="975.5391"/><line style="stroke:#0D47A1;stroke-width:1;" x1="236.6938" x2="277.6938" y1="975.5391" y2="975.5391"/><polygon fill="#0D47A1" points="246.6938,971.5391,236.6938,975.5391,246.6938,979.5391,242.6938,975.5391" style="stroke:#0D47A1;stroke-width:1;stroke-linejoin:miter;stroke-miterlimit:10;"/><text fill="#000000" font-family="sans-serif" font-size="13" lengthAdjust="spacing" textLength="145.5073" x="242.6938" y="957.7969">Exact resume / finalize</text></g><g class="message" data-entity-1="part1" data-entity-2="part4" data-source-line="51" id="msg21"><polygon fill="#0D47A1" points="901.6465,1000.8496,911.6465,1004.8496,901.6465,1008.8496,905.6465,1004.8496" style="stroke:#0D47A1;stroke-width:1;stroke-linejoin:miter;stroke-miterlimit:10;"/><line style="stroke:#0D47A1;stroke-width:1;" x1="235.6938" x2="907.6465" y1="1004.8496" y2="1004.8496"/><text fill="#000000" font-family="sans-serif" font-size="13" lengthAdjust="spacing" textLength="142.4287" x="242.6938" y="1000.1074">Fencing / preservation</text></g><g class="message" data-entity-1="part3" data-entity-2="part4" data-source-line="52" id="msg22"><polygon fill="#0D47A1" points="901.6465,1030.1602,911.6465,1034.1602,901.6465,1038.1602,905.6465,1034.1602" style="stroke:#0D47A1;stroke-width:1;stroke-linejoin:miter;stroke-miterlimit:10;"/><line style="stroke:#0D47A1;stroke-width:1;" x1="588.0249" x2="907.6465" y1="1034.1602" y2="1034.1602"/><text fill="#000000" font-family="sans-serif" font-size="13" lengthAdjust="spacing" textLength="136.8301" x="595.0249" y="1029.418">Attempt sync/resume</text></g><g class="message" data-entity-1="part4" data-entity-2="part3" data-source-line="53" id="msg23"><line style="stroke:#0D47A1;stroke-width:1;" x1="589.0249" x2="599.0249" y1="1063.4707" y2="1059.4707"/><line style="stroke:#0D47A1;stroke-width:1;" x1="589.0249" x2="599.0249" y1="1063.4707" y2="1067.4707"/><line style="stroke:#0D47A1;stroke-width:1;stroke-dasharray:2,2;" x1="588.0249" x2="912.6465" y1="1063.4707" y2="1063.4707"/><text fill="#000000" font-family="sans-serif" font-size="13" lengthAdjust="spacing" textLength="127.2515" x="605.0249" y="1058.7285">Fenced! (Stale lease)</text></g><path d="M593,1076.4707 L593,1101.4707 L811,1101.4707 L811,1086.4707 L801,1076.4707 L593,1076.4707" fill="#FFF9C4" style="stroke:#FBC02D;stroke-width:0.5;"/><path d="M801,1076.4707 L801,1086.4707 L811,1086.4707 L801,1076.4707" fill="#FFF9C4" style="stroke:#FBC02D;stroke-width:0.5;"/><text fill="#000000" font-family="sans-serif" font-size="13" lengthAdjust="spacing" textLength="197.0313" x="599" y="1094.0391">Fenced from syncing/resuming</text><rect fill="#EEEEEE" height="3" style="stroke:#EEEEEE;stroke-width:1;" width="976.3306" x="0" y="1127.4365"/><line style="stroke:#000000;stroke-width:1;" x1="0" x2="976.3306" y1="1127.4365" y2="1127.4365"/><line style="stroke:#000000;stroke-width:1;" x1="0" x2="976.3306" y1="1130.4365" y2="1130.4365"/><rect fill="#EEEEEE" height="23.3105" style="stroke:#000000;stroke-width:2;" width="145.9932" x="415.1687" y="1116.7813"/><text fill="#000000" font-family="sans-serif" font-size="13" font-weight="700" lengthAdjust="spacing" textLength="127.7085" x="421.1687" y="1133.3496">Fork (Independent)</text><g class="message" data-entity-1="part1" data-entity-2="part4" data-source-line="57" id="msg24"><polygon fill="#0D47A1" points="901.6465,1167.4023,911.6465,1171.4023,901.6465,1175.4023,905.6465,1171.4023" style="stroke:#0D47A1;stroke-width:1;stroke-linejoin:miter;stroke-miterlimit:10;"/><line style="stroke:#0D47A1;stroke-width:1;" x1="235.6938" x2="907.6465" y1="1171.4023" y2="1171.4023"/><text fill="#000000" font-family="sans-serif" font-size="13" lengthAdjust="spacing" textLength="143.5776" x="242.6938" y="1166.6602">Clone from checkpoint</text></g><g class="message" data-entity-1="part1" data-entity-2="part4" data-source-line="58" id="msg25"><polygon fill="#0D47A1" points="901.6465,1212.0234,911.6465,1216.0234,901.6465,1220.0234,905.6465,1216.0234" style="stroke:#0D47A1;stroke-width:1;stroke-linejoin:miter;stroke-miterlimit:10;"/><line style="stroke:#0D47A1;stroke-width:1;" x1="235.6938" x2="907.6465" y1="1216.0234" y2="1216.0234"/><text fill="#000000" font-family="sans-serif" font-size="13" lengthAdjust="spacing" textLength="166.645" x="242.6938" y="1195.9707">Create new logical session</text><text fill="#000000" font-family="sans-serif" font-size="13" lengthAdjust="spacing" textLength="145.9897" x="242.6938" y="1211.2813">and workspace identity</text></g><g class="message" data-entity-1="part1" data-entity-2="part1" data-source-line="59" id="msg26"><line style="stroke:#0D47A1;stroke-width:1;" x1="235.6938" x2="277.6938" y1="1245.334" y2="1245.334"/><line style="stroke:#0D47A1;stroke-width:1;" x1="277.6938" x2="277.6938" y1="1245.334" y2="1258.334"/><line style="stroke:#0D47A1;stroke-width:1;" x1="236.6938" x2="277.6938" y1="1258.334" y2="1258.334"/><polygon fill="#0D47A1" points="246.6938,1254.334,236.6938,1258.334,246.6938,1262.334,242.6938,1258.334" style="stroke:#0D47A1;stroke-width:1;stroke-linejoin:miter;stroke-miterlimit:10;"/><text fill="#000000" font-family="sans-serif" font-size="13" lengthAdjust="spacing" textLength="223.5327" x="242.6938" y="1240.5918">Independent ownership and history</text></g><path d="M5,1271.334 L5,1296.334 L231,1296.334 L231,1281.334 L221,1271.334 L5,1271.334" fill="#FFF9C4" style="stroke:#FBC02D;stroke-width:0.5;"/><path d="M221,1271.334 L221,1281.334 L231,1281.334 L221,1271.334" fill="#FFF9C4" style="stroke:#FBC02D;stroke-width:0.5;"/><text fill="#000000" font-family="sans-serif" font-size="13" lengthAdjust="spacing" textLength="205.4102" x="11" y="1288.9023">No change to original ownership</text><?plantuml-src bLN1Rjj64BtpAwOkKCW7MKwQj6W01x3bg36GE6aKm1TTXkHGMd2voymkvQX5_xspIrAcA2LjUH0fxjkPDs_UB5sfJ8sC5TnWLgxPDYQVMsqPVbp4At5xXACl3PcCuAy4vBfcjeyTzlBsnQ_Np-BhTwgWTyhGZUMSk5j_zlANb_FBm_LnlZS_BvulRYFc8x9NcQhH-6-56KB-MwI5DRwd6wy8k4MFARflqjslVoT9ZpdEyFT0FcDzBzqfhN-RlsZNXaGMD_FBvssIKy4Jhxmc-9qnewBHW2ON74kBFcD9TaiCowvfIL8_IG5dj-IyCkYLDV3MEhyoatjwX0-FXlZy3D11G1pkUKzk0_Va7osNWl-CIhiCDSsMoxVjde0utBEqJQ3JfVYWys6A9MT9tca7PtTLrSYpffNvH9ceuE0dkD4sTItOMvOghgwUojqNUNML1BemVHrYle9FeMZvl-wHlaCcihn7FQ3oK8YWDTkj4j71OK5Jtx21D3G7UNUmuOz6aPDgfAEDtwy4NgzWmK6TR4DPMLjbZfP5R0rfeqi8yhbQYCtwl3EFhfoc5Za7jpFPKp7jvc6pdCSrYJ1Rr2gFhmuezjhedI1j3LOKjq7n4P-vjgvXckQaFSQaCB5r28VwV9o_Ga-i9E6VT54pIOC9Pf3Pgb9-ZBtEjnZE24sXgLJRR0CJpBuqIZRHLyoyKBE681yK5S57QH-KCSgifsqewPugLDQMt2F3FRJRDLMWL0ILXUKuKkT2eQubGXmJsfBuisvItSUCyybglV5WYrRDuDUDM1TICMH53h2F4Oqu6hL9iAqyxCuF3DbIk9CU-5FT6-7cM6EgjF8xgGSRlv6R-AHGCkVHNMvK_9klWP0usSdTJrD6PQGtfb1SdSpmtGuLeQIZJhn7BeK5RPLjNEkdK8gc_-MKAB2c8khRadz0cRKXSLQkl5YPZp9Dn5jnYH91rw5L6oM6vjtAX8bbKTfa8bEiyE984h6POFx55Giv5yLVKU2Oxd2SEhMyfwhsSKHcRSWaBi5q-heRkX28yXzWiWoQz6u-uQSM20NRAWQKx6rCUUWTLSBapkHKa_mOVyfAChioFp78uBmPWvYa5s3aKDTsBOxLylrsJWfScU3__Ia4AkGHlur4791eE-usgewZqtNYL3_lhL128nxt5gmK7u-z_VP_0000?></g></svg>